<?xml version="1.0" encoding="utf-8"?>
<!-- Generator: Adobe Illustrator 27.2.0, SVG Export Plug-In . SVG Version: 6.00 Build 0)  -->
<svg version="1.1" id="图层_3" xmlns="http://www.w3.org/2000/svg" xmlns:xlink="http://www.w3.org/1999/xlink" x="0px" y="0px"
	 viewBox="0 0 1129 663" style="enable-background:new 0 0 1129 663;" xml:space="preserve">
<style type="text/css">
	.st0{fill:none;stroke:#11603A;stroke-width:7.7047;stroke-linecap:round;stroke-linejoin:round;stroke-miterlimit:10;}
	.st1{fill:#DCF0FF;stroke:#11603A;stroke-width:3.8524;stroke-linecap:round;stroke-linejoin:round;stroke-miterlimit:10;}
	.st2{fill:#11603A;stroke:#11603A;stroke-width:7.7047;stroke-linecap:round;stroke-linejoin:round;stroke-miterlimit:10;}
	.st3{fill:#B9BEEA;stroke:#11603A;stroke-width:7.7047;stroke-linecap:round;stroke-linejoin:round;stroke-miterlimit:10;}
	.st4{fill:#CED3F4;stroke:#11603A;stroke-width:7.7047;stroke-linecap:round;stroke-linejoin:round;stroke-miterlimit:10;}
	.st5{fill:#EBE1FF;stroke:#11603A;stroke-width:7.7047;stroke-linecap:round;stroke-linejoin:round;stroke-miterlimit:10;}
	.st6{fill:#DCF3FF;stroke:#11603A;stroke-width:7.7047;stroke-linecap:round;stroke-linejoin:round;stroke-miterlimit:10;}
	.st7{fill:#5C72AA;stroke:#11603A;stroke-width:7.7047;stroke-linecap:round;stroke-linejoin:round;stroke-miterlimit:10;}
	.st8{fill:#9EEBFF;stroke:#11603A;stroke-width:7.7047;stroke-linecap:round;stroke-linejoin:round;stroke-miterlimit:10;}
	.st9{fill:#FFFFFF;stroke:#11603A;stroke-width:3.8524;stroke-linecap:round;stroke-linejoin:round;stroke-miterlimit:10;}
	.st10{fill:#FFF5CA;stroke:#11603A;stroke-width:3.8524;stroke-linecap:round;stroke-linejoin:round;stroke-miterlimit:10;}
	.st11{fill:#11603A;stroke:#11603A;stroke-width:3.8524;stroke-linecap:round;stroke-linejoin:round;stroke-miterlimit:10;}
	.st12{fill:none;stroke:#11603A;stroke-width:5.7785;stroke-linecap:round;stroke-linejoin:round;stroke-miterlimit:10;}
	.st13{fill:#EEF6FF;stroke:#11603A;stroke-width:7.7047;stroke-linecap:round;stroke-linejoin:round;stroke-miterlimit:10;}
	.st14{fill:#B3BCE8;stroke:#11603A;stroke-width:7.7047;stroke-linecap:round;stroke-linejoin:round;stroke-miterlimit:10;}
	.st15{fill:#CED8F4;stroke:#11603A;stroke-width:7.7047;stroke-linecap:round;stroke-linejoin:round;stroke-miterlimit:10;}
	.st16{fill:#EBF1FF;stroke:#11603A;stroke-width:7.7047;stroke-linecap:round;stroke-linejoin:round;stroke-miterlimit:10;}
</style>
<g>
	<line class="st0" x1="300.15" y1="175.17" x2="400.34" y2="233.19"/>
	<line class="st0" x1="275.6" y1="187.3" x2="375.8" y2="245.32"/>
	<line class="st0" x1="257.59" y1="204.18" x2="357.78" y2="262.2"/>
	<polyline class="st0" points="90.72,238.49 140.82,267.5 215.14,263.87 315.33,321.89 	"/>
	<line class="st0" x1="159.23" y1="87.89" x2="259.43" y2="145.91"/>
	<line class="st0" x1="135.97" y1="100.02" x2="236.16" y2="158.04"/>
	<line class="st0" x1="114.74" y1="114.98" x2="214.94" y2="172.99"/>
	<line class="st0" x1="876.07" y1="506.36" x2="976.26" y2="564.38"/>
	<line class="st0" x1="852.8" y1="518.49" x2="952.99" y2="576.5"/>
	<line class="st0" x1="831.58" y1="533.44" x2="931.77" y2="591.46"/>
	<polyline class="st0" points="1030.77,430.36 954.93,386.44 880.91,395.39 714.82,299.22 	"/>
	<line class="st0" x1="359.71" y1="410.29" x2="259.52" y2="468.31"/>
	<line class="st0" x1="203.85" y1="511.84" x2="103.66" y2="569.85"/>
	<line class="st0" x1="227.54" y1="526.44" x2="127.34" y2="584.45"/>
	<line class="st0" x1="257.02" y1="540.84" x2="156.82" y2="598.86"/>
	<line class="st0" x1="384.26" y1="422.42" x2="284.06" y2="480.43"/>
	<line class="st0" x1="402.27" y1="439.3" x2="302.08" y2="497.31"/>
	<line class="st0" x1="506.36" y1="485.05" x2="367.21" y2="565.63"/>
	<line class="st0" x1="751.25" y1="90.79" x2="612.1" y2="171.36"/>
	<polyline class="st0" points="347.81,628.17 448.01,570.15 448.01,519.54 	"/>
	<line class="st0" x1="781.87" y1="176.8" x2="681.68" y2="234.81"/>
	<line class="st0" x1="806.42" y1="188.93" x2="706.22" y2="246.94"/>
	<line class="st0" x1="824.43" y1="205.8" x2="724.24" y2="263.82"/>
	<line class="st0" x1="943.38" y1="87.56" x2="843.18" y2="145.58"/>
	<line class="st0" x1="967.92" y1="99.69" x2="867.73" y2="157.71"/>
	<line class="st0" x1="985.94" y1="116.57" x2="885.74" y2="174.59"/>
	<line class="st0" x1="714.99" y1="410.29" x2="815.18" y2="468.31"/>
	<line class="st0" x1="880.66" y1="395.28" x2="1036.14" y2="485.32"/>
	<line class="st0" x1="690.44" y1="422.42" x2="790.64" y2="480.43"/>
	<line class="st0" x1="672.43" y1="439.3" x2="772.62" y2="497.31"/>
	<g>
		<path class="st1" d="M703.87,582.68c3.12,1.8,3.13,4.72,0.04,6.51l-64.16,37.28c-3.1,1.8-8.13,1.8-11.25,0l-64.58-37.28
			c-3.11-1.8-3.13-4.71-0.03-6.51l64.16-37.28c3.09-1.8,8.13-1.8,11.24,0L703.87,582.68z"/>
	</g>
	<g>
		<path class="st1" d="M452,110.6c1.43,0.82,1.44,2.16,0.02,2.98l-29.4,17.08c-1.42,0.82-3.73,0.82-5.15,0l-29.59-17.08
			c-1.43-0.82-1.43-2.16-0.01-2.98l29.4-17.08c1.42-0.82,3.72-0.82,5.15,0L452,110.6z"/>
	</g>
	<g>
		<path class="st1" d="M1000.29,270.4c2.38,1.37,2.39,3.6,0.03,4.97l-48.99,28.47c-2.37,1.37-6.21,1.37-8.59,0l-49.31-28.47
			c-2.38-1.37-2.39-3.6-0.02-4.97l48.99-28.47c2.36-1.37,6.2-1.37,8.58,0L1000.29,270.4z"/>
	</g>
	<g>
		<path class="st2" d="M362.9,154.47c9.49,5.48,9.54,14.36,0.12,19.83l-111.29,64.68c-9.42,5.47-24.74,5.47-34.24-0.01L105.49,174.3
			c-9.49-5.48-9.54-14.36-0.12-19.83l111.29-64.68c9.42-5.47,24.74-5.47,34.24,0.01L362.9,154.47z"/>
	</g>
	<g>
		<path class="st3" d="M362.9,145.11c9.49,5.48,9.54,14.36,0.12,19.83l-111.29,64.68c-9.42,5.47-24.74,5.47-34.24-0.01
			l-112.01-64.67c-9.49-5.48-9.54-14.36-0.12-19.83l111.29-64.68c9.42-5.47,24.74-5.47,34.24,0.01L362.9,145.11z"/>
	</g>
	<g>
		<path class="st2" d="M987.1,154.47c9.49,5.48,9.54,14.36,0.12,19.83l-111.29,64.68c-9.42,5.47-24.74,5.47-34.24-0.01L729.68,174.3
			c-9.49-5.48-9.54-14.36-0.12-19.83l111.29-64.68c9.42-5.47,24.74-5.47,34.24,0.01L987.1,154.47z"/>
	</g>
	<g>
		<path class="st4" d="M987.1,145.11c9.49,5.48,9.54,14.36,0.12,19.83l-111.29,64.68c-9.42,5.47-24.74,5.47-34.24-0.01
			l-112.01-64.67c-9.49-5.48-9.54-14.36-0.12-19.83l111.29-64.68c9.42-5.47,24.74-5.47,34.24,0.01L987.1,145.11z"/>
	</g>
	<g>
		<path class="st2" d="M362.9,516.52c9.49,5.48,9.54,14.36,0.12,19.83l-111.29,64.68c-9.42,5.47-24.74,5.47-34.24-0.01
			l-112.01-64.67c-9.49-5.48-9.54-14.36-0.12-19.83l111.29-64.68c9.42-5.47,24.74-5.47,34.24,0.01L362.9,516.52z"/>
	</g>
	<g>
		<path class="st5" d="M362.9,507.17c9.49,5.48,9.54,14.36,0.12,19.83l-111.29,64.68c-9.42,5.47-24.74,5.47-34.24-0.01L105.49,527
			c-9.49-5.48-9.54-14.36-0.12-19.83l111.29-64.68c9.42-5.47,24.74-5.47,34.24,0.01L362.9,507.17z"/>
	</g>
	<g>
		<path class="st2" d="M978.78,516.52c9.49,5.48,9.54,14.36,0.12,19.83l-111.29,64.68c-9.42,5.47-24.74,5.47-34.24-0.01
			l-112.01-64.67c-9.49-5.48-9.54-14.36-0.12-19.83l111.29-64.68c9.42-5.47,24.74-5.47,34.24,0.01L978.78,516.52z"/>
	</g>
	<g>
		<path class="st6" d="M978.78,507.17c9.49,5.48,9.54,14.36,0.12,19.83l-111.29,64.68c-9.42,5.47-24.74,5.47-34.24-0.01L721.36,527
			c-9.49-5.48-9.54-14.36-0.12-19.83l111.29-64.68c9.42-5.47,24.74-5.47,34.24,0.01L978.78,507.17z"/>
	</g>
	<g>
		<path class="st3" d="M867.46,332.34c11.04,6.38,11.1,16.71,0.13,23.09L563.12,532.36c-10.97,6.38-28.82,6.38-39.86,0
			L216.81,355.43c-11.04-6.38-11.1-16.71-0.13-23.09l304.47-176.94c10.97-6.38,28.82-6.38,39.86,0L867.46,332.34z"/>
	</g>
	<g>
		<path class="st3" d="M867.46,312.79c11.04,6.38,11.1,16.71,0.13,23.09L563.12,512.81c-10.97,6.38-28.82,6.38-39.86,0
			L216.81,335.88c-11.04-6.38-11.1-16.71-0.13-23.09l304.47-176.94c10.97-6.38,28.82-6.38,39.86,0L867.46,312.79z"/>
	</g>
	<g>
		<g>
			<g>
				<path class="st7" d="M662.92,250.78c69.3,40.01,69.66,104.87,0.82,144.88c-68.83,40-180.81,40-250.11-0.01
					c-69.28-40-69.64-104.86-0.82-144.86C481.66,210.78,593.64,210.78,662.92,250.78z"/>
			</g>
			<g>
				<circle class="st8" cx="419.94" cy="249.24" r="30.55"/>
				<circle class="st2" cx="419.94" cy="249.24" r="14.33"/>
				<circle class="st8" cx="656.63" cy="249.24" r="30.55"/>
				<circle class="st2" cx="656.63" cy="249.24" r="14.33"/>
			</g>
			<path class="st8" d="M665.95,394.27v-85.14c0-69.7-57.03-126.73-126.73-126.73h0c-69.7,0-126.73,57.03-126.73,126.73v85.82
				c0.38,0.23,0.75,0.48,1.13,0.7c69.3,40.01,181.28,40.01,250.11,0.01C664.49,395.22,665.22,394.74,665.95,394.27z"/>
			<circle class="st9" cx="482.61" cy="273.21" r="33.66"/>
			<circle class="st9" cx="593.96" cy="273.21" r="33.66"/>
			<path class="st9" d="M555.48,323.22c0,0-2.07,22.92-17.2,22.92c-15.13,0-17.2-22.92-17.2-22.92H555.48z"/>
			<line class="st9" x1="538.28" y1="323.22" x2="538.28" y2="346.14"/>
			<path class="st10" d="M538.28,325.13c7.15,0,12.75,5.58,20.73,5.58c7.53,0,13.99-4.59,13.99-12.05
				c0-13.22-17.88-24.39-34.73-24.39c-16.85,0-34.73,11.17-34.73,24.39c0,7.46,6.46,12.05,13.99,12.05
				C525.53,330.71,531.14,325.13,538.28,325.13z"/>
			<path class="st11" d="M538.28,309.6c23.75-5.29,22.09-17.63,0-17.63C516.19,291.97,514.53,304.31,538.28,309.6z"/>
			<polyline class="st12" points="482.88,262.55 500.61,273.13 482.61,283.87 			"/>
			<polyline class="st12" points="593.69,262.55 575.96,273.13 593.96,283.87 			"/>
		</g>
		<path class="st8" d="M422.88,376.78c17.08,1.02,36.65,13.77,32.49,32.56c-4.34,19.61-66.76,7.05-63.09-13.95
			C394.54,382.55,410.84,376.06,422.88,376.78z"/>
		<path class="st8" d="M658.75,376.78c-17.08,1.02-36.65,13.77-32.49,32.56c4.34,19.61,66.76,7.05,63.09-13.95
			C687.1,382.55,670.79,376.06,658.75,376.78z"/>
	</g>
	<g>
		<path class="st6" d="M257.07,28.6c6.26-3.61,11.33-0.71,11.35,6.47l0.22,79.2c0.02,7.19-5.03,15.94-11.28,19.55l-25.49,14.72
			l-6.69,17.29c-0.5,1.28-1.37,2.29-2.24,2.79c-0.87,0.5-1.75,0.51-2.25-0.2l-6.77-9.51l-25.49,14.72
			c-6.26,3.61-11.33,0.71-11.35-6.48l-0.22-79.2c-0.02-7.18,5.03-15.93,11.28-19.54L257.07,28.6z"/>
	</g>
	<g>
		<polygon class="st13" points="926.6,69.84 858.72,109.28 790.4,69.84 858.29,30.39 		"/>
	</g>
	<g>
		<polygon class="st14" points="926.6,69.84 926.38,148.34 858.49,187.79 858.72,109.28 		"/>
	</g>
	<g>
		<polygon class="st15" points="858.72,109.28 858.49,187.79 790.18,148.35 790.4,69.84 		"/>
	</g>
	<path class="st16" d="M287.72,503.87L233,406.72l-54.89,97.19h0c-8.44,12.32-4.01,26.93,13.27,36.9c23.14,13.36,60.52,13.36,83.5,0
		C292.07,530.83,296.33,516.2,287.72,503.87z"/>
	<circle class="st16" cx="851.89" cy="476.58" r="61.8"/>
	<g>
		<path class="st2" d="M92.33,226.82c5.27,3.04,5.29,7.97,0.06,11.01c-5.23,3.04-13.74,3.04-19.01,0
			c-5.26-3.04-5.29-7.97-0.06-11.01C78.56,223.78,87.07,223.78,92.33,226.82z"/>
	</g>
	<g>
		<path class="st2" d="M1044.56,428.66c5.27,3.04,5.29,7.97,0.06,11.01c-5.23,3.04-13.74,3.04-19.01,0
			c-5.26-3.04-5.29-7.97-0.06-11.01C1030.79,425.62,1039.29,425.62,1044.56,428.66z"/>
	</g>
	<g>
		<path class="st2" d="M763.86,83.35c5.27,3.04,5.29,7.97,0.06,11.01c-5.23,3.04-13.74,3.04-19.01,0
			c-5.26-3.04-5.29-7.97-0.06-11.01C750.09,80.32,758.6,80.32,763.86,83.35z"/>
	</g>
	<g>
		<path class="st2" d="M373.03,564.65c5.27,3.04,5.29,7.97,0.06,11.01c-5.23,3.04-13.74,3.04-19.01,0
			c-5.26-3.04-5.29-7.97-0.06-11.01C359.26,561.61,367.77,561.61,373.03,564.65z"/>
	</g>
	<g>
		<path class="st2" d="M359.59,622.67c5.27,3.04,5.29,7.97,0.06,11.01c-5.23,3.04-13.74,3.04-19.01,0
			c-5.26-3.04-5.29-7.97-0.06-11.01C345.82,619.63,354.33,619.63,359.59,622.67z"/>
	</g>
	<g>
		<path class="st2" d="M1055.61,482.71c5.27,3.04,5.29,7.97,0.06,11.01c-5.23,3.04-13.74,3.04-19.01,0
			c-5.26-3.04-5.29-7.97-0.06-11.01C1041.84,479.67,1050.35,479.67,1055.61,482.71z"/>
	</g>
</g>
</svg>
