<?xml version="1.0" encoding="utf-8"?>
<!-- Generator: Adobe Illustrator 27.2.0, SVG Export Plug-In . SVG Version: 6.00 Build 0)  -->
<svg version="1.2" baseProfile="tiny" id="图层_3"
	 xmlns="http://www.w3.org/2000/svg" xmlns:xlink="http://www.w3.org/1999/xlink" x="0px" y="0px" viewBox="0 0 1129 663"
	 overflow="visible" xml:space="preserve">
<g>
	<g>
		<path fill="#11603A" d="M400.34,237.04c-0.66,0-1.32-0.17-1.93-0.52L298.22,178.5c-1.84-1.07-2.47-3.42-1.4-5.26
			c1.07-1.84,3.42-2.47,5.26-1.4l100.19,58.02c1.84,1.07,2.47,3.42,1.4,5.26C402.96,236.35,401.67,237.04,400.34,237.04z"/>
	</g>
	<g>
		<path fill="#11603A" d="M375.79,249.17c-0.66,0-1.32-0.17-1.93-0.52l-100.19-58.02c-1.84-1.07-2.47-3.42-1.4-5.26
			c1.07-1.84,3.42-2.47,5.26-1.4l100.19,58.02c1.84,1.07,2.47,3.42,1.4,5.26C378.42,248.48,377.12,249.17,375.79,249.17z"/>
	</g>
	<g>
		<path fill="#11603A" d="M357.78,266.05c-0.66,0-1.32-0.17-1.93-0.52l-100.19-58.02c-1.84-1.07-2.47-3.42-1.4-5.26
			c1.07-1.84,3.42-2.47,5.26-1.4l100.19,58.02c1.84,1.07,2.47,3.42,1.4,5.26C360.4,265.36,359.11,266.05,357.78,266.05z"/>
	</g>
	<g>
		<path fill="#11603A" d="M315.33,325.74c-0.66,0-1.32-0.17-1.93-0.52l-99.21-57.45L141,271.35c-0.74,0.04-1.48-0.14-2.12-0.51
			l-50.1-29.01c-1.84-1.07-2.47-3.42-1.4-5.26c1.07-1.84,3.42-2.47,5.26-1.4l49.11,28.44l73.19-3.57c0.74-0.04,1.48,0.14,2.12,0.51
			l100.19,58.02c1.84,1.07,2.47,3.42,1.4,5.26C317.95,325.05,316.66,325.74,315.33,325.74z"/>
	</g>
	<g>
		<path fill="#11603A" d="M259.42,149.76c-0.66,0-1.32-0.17-1.93-0.52L157.3,91.23c-1.84-1.07-2.47-3.42-1.4-5.26
			c1.07-1.84,3.42-2.47,5.26-1.4l100.19,58.02c1.84,1.07,2.47,3.42,1.4,5.26C262.05,149.07,260.75,149.76,259.42,149.76z"/>
	</g>
	<g>
		<path fill="#11603A" d="M236.16,161.89c-0.66,0-1.32-0.17-1.93-0.52l-100.19-58.02c-1.84-1.07-2.47-3.42-1.4-5.26
			c1.07-1.84,3.42-2.47,5.26-1.4l100.19,58.02c1.84,1.07,2.47,3.42,1.4,5.26C238.78,161.2,237.49,161.89,236.16,161.89z"/>
	</g>
	<g>
		<path fill="#11603A" d="M214.94,176.85c-0.66,0-1.32-0.17-1.93-0.52l-100.19-58.02c-1.84-1.07-2.47-3.42-1.4-5.26
			c1.07-1.84,3.42-2.47,5.26-1.4l100.19,58.02c1.84,1.07,2.47,3.42,1.4,5.26C217.56,176.16,216.26,176.85,214.94,176.85z"/>
	</g>
	<g>
		<path fill="#11603A" d="M976.26,568.23c-0.66,0-1.32-0.17-1.93-0.52l-100.19-58.02c-1.84-1.07-2.47-3.42-1.4-5.26
			c1.07-1.84,3.42-2.47,5.26-1.4l100.19,58.02c1.84,1.07,2.47,3.42,1.4,5.26C978.88,567.54,977.59,568.23,976.26,568.23z"/>
	</g>
	<g>
		<path fill="#11603A" d="M952.99,580.36c-0.66,0-1.32-0.17-1.93-0.52l-100.19-58.02c-1.84-1.07-2.47-3.42-1.4-5.26
			c1.07-1.84,3.42-2.47,5.26-1.4l100.19,58.02c1.84,1.07,2.47,3.42,1.4,5.26C955.61,579.67,954.32,580.36,952.99,580.36z"/>
	</g>
	<g>
		<path fill="#11603A" d="M931.77,595.31c-0.66,0-1.32-0.17-1.93-0.52l-100.19-58.02c-1.84-1.07-2.47-3.42-1.4-5.26
			c1.07-1.84,3.42-2.47,5.26-1.4l100.19,58.02c1.84,1.07,2.47,3.42,1.4,5.26C934.39,594.62,933.1,595.31,931.77,595.31z"/>
	</g>
	<g>
		<path fill="#11603A" d="M1030.77,434.21c-0.66,0-1.32-0.17-1.93-0.52l-74.73-43.27l-72.74,8.8c-0.83,0.1-1.67-0.07-2.39-0.49
			l-166.09-96.17c-1.84-1.07-2.47-3.42-1.4-5.26c1.07-1.84,3.42-2.47,5.26-1.4l164.97,95.53l72.74-8.8c0.83-0.1,1.67,0.07,2.39,0.49
			l75.84,43.92c1.84,1.07,2.47,3.42,1.4,5.26C1033.39,433.52,1032.1,434.21,1030.77,434.21z"/>
	</g>
	<g>
		<path fill="#11603A" d="M259.52,472.16c-1.33,0-2.62-0.69-3.34-1.92c-1.07-1.84-0.44-4.2,1.4-5.26l100.19-58.02
			c1.84-1.07,4.2-0.44,5.26,1.4c1.07,1.84,0.44,4.2-1.4,5.26l-100.19,58.02C260.84,471.99,260.17,472.16,259.52,472.16z"/>
	</g>
	<g>
		<path fill="#11603A" d="M103.66,573.71c-1.33,0-2.62-0.69-3.34-1.92c-1.07-1.84-0.44-4.2,1.4-5.26l100.19-58.02
			c1.84-1.07,4.2-0.44,5.26,1.4c1.07,1.84,0.44,4.2-1.4,5.26l-100.19,58.02C104.98,573.54,104.32,573.71,103.66,573.71z"/>
	</g>
	<g>
		<path fill="#11603A" d="M127.35,588.31c-1.33,0-2.62-0.69-3.34-1.92c-1.07-1.84-0.44-4.2,1.4-5.26l100.19-58.02
			c1.84-1.07,4.2-0.44,5.26,1.4c1.07,1.84,0.44,4.2-1.4,5.26l-100.19,58.02C128.67,588.14,128,588.31,127.35,588.31z"/>
	</g>
	<g>
		<path fill="#11603A" d="M156.83,602.71c-1.33,0-2.62-0.69-3.34-1.92c-1.07-1.84-0.44-4.2,1.4-5.26l100.19-58.02
			c1.84-1.07,4.2-0.44,5.26,1.4c1.07,1.84,0.44,4.2-1.4,5.26L158.76,602.2C158.15,602.55,157.48,602.71,156.83,602.71z"/>
	</g>
	<g>
		<path fill="#11603A" d="M284.07,484.29c-1.33,0-2.62-0.69-3.34-1.92c-1.07-1.84-0.44-4.2,1.4-5.26l100.19-58.02
			c1.84-1.07,4.2-0.44,5.26,1.4c1.07,1.84,0.44,4.2-1.4,5.26l-100.19,58.02C285.39,484.12,284.72,484.29,284.07,484.29z"/>
	</g>
	<g>
		<path fill="#11603A" d="M302.08,501.17c-1.33,0-2.62-0.69-3.34-1.92c-1.07-1.84-0.44-4.2,1.4-5.26l100.19-58.02
			c1.84-1.07,4.2-0.44,5.26,1.4c1.07,1.84,0.44,4.2-1.4,5.26l-100.19,58.02C303.4,501,302.74,501.17,302.08,501.17z"/>
	</g>
	<g>
		<path fill="#11603A" d="M367.21,569.48c-1.33,0-2.62-0.69-3.34-1.92c-1.07-1.84-0.44-4.2,1.4-5.26l139.15-80.58
			c1.84-1.07,4.2-0.44,5.26,1.4c1.07,1.84,0.44,4.2-1.4,5.26l-139.15,80.58C368.53,569.32,367.87,569.48,367.21,569.48z"/>
	</g>
	<g>
		<path fill="#11603A" d="M612.1,175.22c-1.33,0-2.62-0.69-3.34-1.92c-1.07-1.84-0.44-4.2,1.4-5.26l139.15-80.58
			c1.84-1.07,4.2-0.44,5.26,1.4c1.07,1.84,0.44,4.2-1.4,5.26L614.03,174.7C613.42,175.05,612.76,175.22,612.1,175.22z"/>
	</g>
	<g>
		<path fill="#11603A" d="M347.82,632.02c-1.33,0-2.62-0.69-3.34-1.92c-1.07-1.84-0.44-4.2,1.4-5.26l98.27-56.9v-48.39
			c0-2.13,1.73-3.85,3.85-3.85s3.85,1.72,3.85,3.85v50.61c0,1.38-0.73,2.64-1.92,3.33l-100.19,58.02
			C349.14,631.86,348.47,632.02,347.82,632.02z"/>
	</g>
	<g>
		<path fill="#11603A" d="M681.68,238.67c-1.33,0-2.62-0.69-3.34-1.92c-1.07-1.84-0.44-4.2,1.4-5.26l100.19-58.02
			c1.84-1.07,4.2-0.44,5.26,1.4c1.07,1.84,0.44,4.2-1.4,5.26l-100.19,58.02C683,238.5,682.33,238.67,681.68,238.67z"/>
	</g>
	<g>
		<path fill="#11603A" d="M706.23,250.8c-1.33,0-2.62-0.69-3.34-1.92c-1.07-1.84-0.44-4.2,1.4-5.26l100.19-58.02
			c1.84-1.06,4.2-0.44,5.26,1.4c1.07,1.84,0.44,4.2-1.4,5.26l-100.19,58.02C707.54,250.63,706.88,250.8,706.23,250.8z"/>
	</g>
	<g>
		<path fill="#11603A" d="M724.24,267.68c-1.33,0-2.62-0.69-3.34-1.92c-1.07-1.84-0.44-4.2,1.4-5.26l100.19-58.02
			c1.84-1.06,4.2-0.44,5.26,1.4c1.07,1.84,0.44,4.2-1.4,5.26l-100.19,58.02C725.56,267.51,724.9,267.68,724.24,267.68z"/>
	</g>
	<g>
		<path fill="#11603A" d="M843.19,149.43c-1.33,0-2.62-0.69-3.34-1.92c-1.07-1.84-0.44-4.2,1.4-5.26l100.19-58.02
			c1.84-1.06,4.2-0.44,5.26,1.4c1.07,1.84,0.44,4.2-1.4,5.26l-100.19,58.02C844.5,149.26,843.84,149.43,843.19,149.43z"/>
	</g>
	<g>
		<path fill="#11603A" d="M867.73,161.56c-1.33,0-2.62-0.69-3.34-1.92c-1.07-1.84-0.44-4.2,1.4-5.26l100.19-58.02
			c1.84-1.06,4.2-0.44,5.26,1.4c1.07,1.84,0.44,4.2-1.4,5.26l-100.19,58.02C869.05,161.39,868.39,161.56,867.73,161.56z"/>
	</g>
	<g>
		<path fill="#11603A" d="M885.75,178.44c-1.33,0-2.62-0.69-3.34-1.92c-1.07-1.84-0.44-4.2,1.4-5.26l100.19-58.02
			c1.84-1.07,4.2-0.44,5.26,1.4c1.07,1.84,0.44,4.2-1.4,5.26l-100.19,58.02C887.07,178.27,886.4,178.44,885.75,178.44z"/>
	</g>
	<g>
		<path fill="#11603A" d="M815.18,472.16c-0.66,0-1.32-0.17-1.93-0.52l-100.19-58.02c-1.84-1.07-2.47-3.42-1.4-5.26
			c1.07-1.84,3.42-2.47,5.26-1.4l100.19,58.02c1.84,1.07,2.47,3.42,1.4,5.26C817.8,471.47,816.51,472.16,815.18,472.16z"/>
	</g>
	<g>
		<path fill="#11603A" d="M1036.14,489.17c-0.66,0-1.32-0.17-1.93-0.52l-155.48-90.03c-1.84-1.07-2.47-3.42-1.4-5.26
			c1.07-1.84,3.42-2.47,5.26-1.4l155.48,90.03c1.84,1.07,2.47,3.42,1.4,5.26C1038.76,488.48,1037.47,489.17,1036.14,489.17z"/>
	</g>
	<g>
		<path fill="#11603A" d="M790.63,484.29c-0.66,0-1.32-0.17-1.93-0.52l-100.19-58.02c-1.84-1.07-2.47-3.42-1.4-5.26
			c1.07-1.84,3.42-2.47,5.26-1.4l100.19,58.02c1.84,1.07,2.47,3.42,1.4,5.26C793.26,483.6,791.96,484.29,790.63,484.29z"/>
	</g>
	<g>
		<path fill="#11603A" d="M772.62,501.17c-0.66,0-1.32-0.17-1.93-0.52L670.5,442.63c-1.84-1.07-2.47-3.42-1.4-5.26
			c1.07-1.84,3.42-2.47,5.26-1.4l100.19,58.02c1.84,1.07,2.47,3.42,1.4,5.26C775.24,500.48,773.95,501.17,772.62,501.17z"/>
	</g>
	<g>
		<g>
			<path fill="#DCF0FF" d="M703.87,582.68c3.12,1.8,3.13,4.72,0.04,6.51l-64.16,37.28c-3.1,1.8-8.13,1.8-11.25,0l-64.58-37.28
				c-3.11-1.8-3.13-4.71-0.03-6.51l64.16-37.28c3.09-1.8,8.13-1.8,11.24,0L703.87,582.68z"/>
			<path fill="#11603A" d="M634.14,629.75c-2.37,0-4.74-0.54-6.59-1.6l-64.58-37.28c-2.1-1.21-3.31-3.01-3.31-4.93
				c0-1.91,1.19-3.71,3.27-4.92l64.16-37.28c3.68-2.14,9.47-2.14,13.17,0l64.58,37.28c2.1,1.21,3.31,3.01,3.31,4.93
				c0,1.91-1.19,3.7-3.27,4.91l-64.16,37.28C638.88,629.22,636.51,629.75,634.14,629.75z M633.67,545.97c-1.7,0-3.39,0.37-4.64,1.09
				l-64.16,37.28c-0.85,0.49-1.36,1.08-1.35,1.58c0,0.5,0.52,1.1,1.38,1.6l64.58,37.28c2.54,1.46,6.8,1.46,9.32,0l64.16-37.28
				c0.85-0.49,1.35-1.08,1.35-1.58c0-0.5-0.52-1.1-1.39-1.6l0,0l-64.58-37.28C637.06,546.34,635.36,545.97,633.67,545.97z"/>
		</g>
	</g>
	<g>
		<g>
			<path fill="#DCF0FF" d="M452,110.6c1.43,0.82,1.44,2.16,0.02,2.98l-29.4,17.08c-1.42,0.82-3.73,0.82-5.15,0l-29.59-17.08
				c-1.43-0.82-1.43-2.16-0.01-2.98l29.4-17.08c1.42-0.82,3.72-0.82,5.15,0L452,110.6z"/>
			<path fill="#11603A" d="M420.04,133.21c-1.27,0-2.53-0.29-3.54-0.88l-29.59-17.08c-1.29-0.75-2.04-1.9-2.04-3.16
				c0-1.26,0.73-2.41,2.02-3.16l29.4-17.08c2.01-1.17,5.06-1.17,7.08,0l29.59,17.08c1.29,0.75,2.04,1.9,2.04,3.16
				c0,1.26-0.73,2.41-2.02,3.15l-29.4,17.08C422.58,132.92,421.31,133.21,420.04,133.21z M389.14,112.09L418.43,129
				c0.83,0.48,2.4,0.48,3.22,0l29.09-16.9l-29.29-16.91c-0.83-0.48-2.4-0.48-3.22,0L389.14,112.09z M451.23,112.41L451.23,112.41
				L451.23,112.41z"/>
		</g>
	</g>
	<g>
		<g>
			<path fill="#DCF0FF" d="M1000.29,270.4c2.38,1.37,2.39,3.6,0.03,4.97l-48.99,28.47c-2.37,1.37-6.21,1.37-8.59,0l-49.31-28.47
				c-2.38-1.37-2.39-3.6-0.02-4.97l48.99-28.47c2.36-1.37,6.2-1.37,8.58,0L1000.29,270.4z"/>
			<path fill="#11603A" d="M947.04,306.79c-1.89,0-3.79-0.43-5.26-1.28l-49.31-28.47c-1.75-1.01-2.75-2.52-2.75-4.16
				c0-1.63,0.99-3.14,2.72-4.15l48.99-28.47c2.94-1.71,7.56-1.71,10.51,0l49.31,28.47l0,0c1.75,1.01,2.75,2.53,2.76,4.16
				c0,1.63-0.99,3.14-2.72,4.14L952.3,305.5C950.83,306.36,948.94,306.79,947.04,306.79z M946.68,242.83
				c-1.22,0-2.44,0.26-3.32,0.77l-48.99,28.47c-0.59,0.34-0.81,0.68-0.81,0.81c0,0.14,0.23,0.48,0.83,0.83l49.31,28.47
				c1.78,1.03,4.89,1.03,6.66,0l48.99-28.47c0.59-0.34,0.8-0.68,0.8-0.81c0-0.14-0.23-0.48-0.83-0.83l-49.31-28.47
				C949.13,243.09,947.91,242.83,946.68,242.83z"/>
		</g>
	</g>
	<g>
		<g>
			<path fill="#11603A" d="M362.9,154.47c9.49,5.48,9.54,14.36,0.12,19.83l-111.29,64.68c-9.42,5.47-24.74,5.47-34.24-0.01
				L105.49,174.3c-9.49-5.48-9.54-14.36-0.12-19.83l111.29-64.68c9.42-5.47,24.74-5.47,34.24,0.01L362.9,154.47z"/>
			<path fill="#11603A" d="M234.65,246.94c-6.85,0-13.72-1.55-19.08-4.64l-112.01-64.67c-5.85-3.38-9.07-8.1-9.08-13.29
				c-0.01-5.16,3.17-9.85,8.95-13.21l111.29-64.68c10.65-6.19,27.38-6.19,38.1,0l112.01,64.67c5.85,3.38,9.07,8.1,9.08,13.29
				c0.01,5.16-3.17,9.85-8.95,13.21L253.67,242.3C248.35,245.4,241.5,246.94,234.65,246.94z M233.74,89.55
				c-5.53,0-11.05,1.19-15.15,3.57L107.3,157.8c-3.25,1.89-5.12,4.27-5.11,6.54c0,2.29,1.91,4.71,5.23,6.62l112.01,64.67
				c8.27,4.77,22.18,4.78,30.38,0.01l111.29-64.68c3.25-1.89,5.12-4.27,5.11-6.54c0-2.29-1.91-4.71-5.23-6.62L248.97,93.13
				C244.83,90.74,239.28,89.55,233.74,89.55z"/>
		</g>
	</g>
	<g>
		<g>
			<path fill="#B9BEEA" d="M362.9,145.11c9.49,5.48,9.54,14.36,0.12,19.83l-111.29,64.68c-9.42,5.47-24.74,5.47-34.24-0.01
				l-112.01-64.67c-9.49-5.48-9.54-14.36-0.12-19.83l111.29-64.68c9.42-5.47,24.74-5.47,34.24,0.01L362.9,145.11z"/>
			<path fill="#11603A" d="M234.65,237.59c-6.85,0-13.72-1.55-19.08-4.64l-112.01-64.67c-5.85-3.38-9.07-8.1-9.08-13.29
				c-0.01-5.16,3.17-9.85,8.95-13.21l111.29-64.68c10.65-6.19,27.38-6.19,38.1,0l112.01,64.67c5.85,3.38,9.07,8.1,9.08,13.29
				c0.01,5.16-3.17,9.85-8.95,13.21l-111.29,64.68C248.35,236.04,241.5,237.59,234.65,237.59z M233.74,80.2
				c-5.53,0-11.05,1.19-15.15,3.57L107.3,148.44c-3.25,1.89-5.12,4.27-5.11,6.54c0,2.29,1.91,4.71,5.23,6.62l112.01,64.67
				c8.27,4.77,22.18,4.78,30.38,0.01l111.29-64.68c3.25-1.89,5.12-4.27,5.11-6.54c0-2.29-1.91-4.71-5.23-6.62L248.97,83.78
				C244.83,81.39,239.28,80.2,233.74,80.2z"/>
		</g>
	</g>
	<g>
		<g>
			<path fill="#11603A" d="M987.1,154.47c9.49,5.48,9.54,14.36,0.12,19.83l-111.29,64.68c-9.42,5.47-24.74,5.47-34.24-0.01
				L729.68,174.3c-9.49-5.48-9.54-14.36-0.12-19.83l111.29-64.68c9.42-5.47,24.74-5.47,34.24,0.01L987.1,154.47z"/>
			<path fill="#11603A" d="M858.84,246.94c-6.85,0-13.72-1.55-19.08-4.64l-112.01-64.67c-5.85-3.38-9.07-8.1-9.08-13.29
				c-0.01-5.16,3.17-9.85,8.95-13.21l111.29-64.68c10.65-6.19,27.38-6.19,38.1,0l112.01,64.67c5.85,3.38,9.07,8.1,9.08,13.29
				c0.01,5.16-3.17,9.85-8.95,13.21L877.86,242.3C872.54,245.4,865.7,246.94,858.84,246.94z M857.93,89.55
				c-5.53,0-11.05,1.19-15.15,3.57L731.49,157.8c-3.25,1.89-5.12,4.27-5.12,6.54c0,2.29,1.91,4.71,5.23,6.62l112.01,64.67
				c8.27,4.77,22.18,4.78,30.38,0.01l111.29-64.68c3.25-1.89,5.12-4.27,5.11-6.54c0-2.29-1.91-4.71-5.23-6.62L873.16,93.13
				C869.03,90.74,863.48,89.55,857.93,89.55z"/>
		</g>
	</g>
	<g>
		<g>
			<path fill="#CED3F4" d="M987.1,145.11c9.49,5.48,9.54,14.36,0.12,19.83l-111.29,64.68c-9.42,5.47-24.74,5.47-34.24-0.01
				l-112.01-64.67c-9.49-5.48-9.54-14.36-0.12-19.83l111.29-64.68c9.42-5.47,24.74-5.47,34.24,0.01L987.1,145.11z"/>
			<path fill="#11603A" d="M858.84,237.59c-6.85,0-13.72-1.55-19.08-4.64l-112.01-64.67c-5.85-3.38-9.07-8.1-9.08-13.29
				c-0.01-5.16,3.17-9.85,8.95-13.21l111.29-64.68c10.65-6.19,27.38-6.19,38.1,0l112.01,64.67c5.85,3.38,9.07,8.1,9.08,13.29
				c0.01,5.16-3.17,9.85-8.95,13.21l-111.29,64.68C872.54,236.04,865.7,237.59,858.84,237.59z M857.93,80.2
				c-5.53,0-11.05,1.19-15.15,3.57l-111.29,64.68c-3.25,1.89-5.12,4.27-5.12,6.54c0,2.29,1.91,4.71,5.23,6.62l112.01,64.67
				c8.27,4.77,22.18,4.78,30.38,0.01l111.29-64.68c3.25-1.89,5.12-4.27,5.11-6.54c0-2.29-1.91-4.71-5.23-6.62L873.16,83.78
				C869.03,81.39,863.48,80.2,857.93,80.2z"/>
		</g>
	</g>
	<g>
		<g>
			<path fill="#11603A" d="M362.9,516.52c9.49,5.48,9.54,14.36,0.12,19.83l-111.29,64.68c-9.42,5.47-24.74,5.47-34.24-0.01
				l-112.01-64.67c-9.49-5.48-9.54-14.36-0.12-19.83l111.29-64.68c9.42-5.47,24.74-5.47,34.24,0.01L362.9,516.52z"/>
			<path fill="#11603A" d="M234.65,609c-6.86,0-13.72-1.55-19.08-4.64l-112.01-64.67c-5.85-3.38-9.07-8.09-9.08-13.29
				c-0.01-5.16,3.17-9.85,8.95-13.21l111.29-64.68c10.65-6.19,27.38-6.18,38.1,0l112.01,64.67c5.85,3.38,9.07,8.09,9.08,13.29
				c0.01,5.16-3.17,9.85-8.95,13.21l-111.29,64.68C248.35,607.45,241.5,609,234.65,609z M233.74,451.6
				c-5.53,0-11.05,1.19-15.15,3.57L107.3,519.85c-3.25,1.89-5.12,4.27-5.11,6.54c0,2.29,1.91,4.71,5.23,6.62l112.01,64.67
				c8.27,4.77,22.18,4.78,30.38,0.01l111.29-64.68c3.25-1.89,5.12-4.27,5.11-6.54c0-2.29-1.91-4.71-5.23-6.62l-112.01-64.67
				C244.83,452.8,239.28,451.6,233.74,451.6z"/>
		</g>
	</g>
	<g>
		<g>
			<path fill="#EBE1FF" d="M362.9,507.17c9.49,5.48,9.54,14.36,0.12,19.83l-111.29,64.68c-9.42,5.47-24.74,5.47-34.24-0.01
				L105.49,527c-9.49-5.48-9.54-14.36-0.12-19.83l111.29-64.68c9.42-5.47,24.74-5.47,34.24,0.01L362.9,507.17z"/>
			<path fill="#11603A" d="M234.65,599.65c-6.86,0-13.72-1.55-19.08-4.64l-112.01-64.67c-5.85-3.38-9.07-8.1-9.08-13.29
				c-0.01-5.16,3.17-9.85,8.95-13.21l111.29-64.68c10.65-6.19,27.38-6.19,38.1,0l112.01,64.67c5.85,3.38,9.07,8.1,9.08,13.29
				c0.01,5.16-3.17,9.85-8.95,13.21l-111.29,64.68C248.35,598.1,241.5,599.65,234.65,599.65z M233.74,442.25
				c-5.53,0-11.05,1.19-15.15,3.57L107.3,510.5c-3.25,1.89-5.12,4.27-5.11,6.54c0,2.29,1.91,4.71,5.23,6.63l112.01,64.67
				c8.27,4.77,22.18,4.78,30.38,0.01l111.29-64.68c3.25-1.89,5.12-4.27,5.11-6.54c0-2.29-1.91-4.71-5.23-6.63l-112.01-64.67
				C244.83,443.45,239.28,442.25,233.74,442.25z"/>
		</g>
	</g>
	<g>
		<g>
			<path fill="#11603A" d="M978.78,516.52c9.49,5.48,9.54,14.36,0.12,19.83l-111.29,64.68c-9.42,5.47-24.74,5.47-34.24-0.01
				l-112.01-64.67c-9.49-5.48-9.54-14.36-0.12-19.83l111.29-64.68c9.42-5.47,24.74-5.47,34.24,0.01L978.78,516.52z"/>
			<path fill="#11603A" d="M850.53,609c-6.86,0-13.72-1.55-19.08-4.64l-112.01-64.67c-5.85-3.38-9.07-8.09-9.08-13.29
				c-0.01-5.16,3.17-9.85,8.95-13.21l111.29-64.68c10.65-6.19,27.38-6.18,38.1,0l112.01,64.67c5.85,3.38,9.07,8.1,9.08,13.29
				c0.01,5.16-3.17,9.85-8.95,13.21l-111.29,64.68C864.22,607.45,857.38,609,850.53,609z M849.62,451.61
				c-5.53,0-11.05,1.19-15.15,3.57l-111.29,64.68c-3.25,1.89-5.12,4.27-5.11,6.54c0,2.29,1.91,4.71,5.23,6.62l112.01,64.67
				c8.26,4.77,22.18,4.78,30.38,0.01l111.29-64.68c3.25-1.89,5.12-4.27,5.11-6.54c0-2.29-1.91-4.71-5.23-6.63l-112.01-64.67
				C860.71,452.8,855.16,451.61,849.62,451.61z"/>
		</g>
	</g>
	<g>
		<g>
			<path fill="#DCF3FF" d="M978.78,507.17c9.49,5.48,9.54,14.36,0.12,19.83l-111.29,64.68c-9.42,5.47-24.74,5.47-34.24-0.01
				L721.36,527c-9.49-5.48-9.54-14.36-0.12-19.83l111.29-64.68c9.42-5.47,24.74-5.47,34.24,0.01L978.78,507.17z"/>
			<path fill="#11603A" d="M850.53,599.65c-6.85,0-13.72-1.55-19.08-4.64l-112.01-64.67c-5.85-3.38-9.07-8.1-9.08-13.29
				c-0.01-5.16,3.17-9.85,8.95-13.21l111.29-64.68c10.65-6.19,27.38-6.19,38.1,0l112.01,64.67c5.85,3.38,9.08,8.1,9.08,13.29
				c0.01,5.16-3.17,9.85-8.95,13.21l-111.29,64.68C864.22,598.1,857.38,599.65,850.53,599.65z M849.62,442.25
				c-5.53,0-11.05,1.19-15.15,3.57L723.18,510.5c-3.25,1.89-5.12,4.27-5.11,6.54c0,2.29,1.91,4.71,5.23,6.63l112.01,64.67
				c8.27,4.77,22.17,4.78,30.38,0.01l111.29-64.68c3.25-1.89,5.12-4.27,5.11-6.54c0-2.29-1.91-4.71-5.23-6.63l-112.01-64.67
				C860.71,443.45,855.16,442.25,849.62,442.25z"/>
		</g>
	</g>
	<g>
		<g>
			<path fill="#B9BEEA" d="M867.46,332.34c11.04,6.38,11.1,16.71,0.13,23.09L563.12,532.36c-10.97,6.38-28.82,6.38-39.86,0
				L216.81,355.43c-11.04-6.38-11.1-16.71-0.13-23.09l304.47-176.94c10.97-6.38,28.82-6.38,39.86,0L867.46,332.34z"/>
			<path fill="#11603A" d="M543.22,541.02c-7.86,0-15.74-1.77-21.88-5.32L214.88,358.77c-6.6-3.81-10.24-9.11-10.25-14.92
				c-0.01-5.78,3.58-11.05,10.11-14.84l304.47-176.94c12.22-7.1,31.42-7.1,43.72-0.01L869.38,329c6.6,3.81,10.24,9.11,10.25,14.91
				c0.01,5.78-3.58,11.05-10.11,14.84L565.06,535.69C558.94,539.25,551.09,541.02,543.22,541.02z M541.04,154.5
				c-6.56,0-13.11,1.41-17.97,4.24L218.61,335.67c-3.99,2.32-6.28,5.3-6.27,8.17c0,2.9,2.33,5.91,6.39,8.25l306.46,176.93
				c9.79,5.65,26.27,5.65,36,0l304.47-176.94c3.99-2.32,6.28-5.3,6.27-8.17c0-2.9-2.33-5.91-6.39-8.25L559.07,158.74
				C554.18,155.92,547.6,154.5,541.04,154.5z"/>
		</g>
	</g>
	<g>
		<g>
			<path fill="#B9BEEA" d="M867.46,312.79c11.04,6.38,11.1,16.71,0.13,23.09L563.12,512.81c-10.97,6.38-28.82,6.38-39.86,0
				L216.81,335.88c-11.04-6.38-11.1-16.71-0.13-23.09l304.47-176.94c10.97-6.38,28.82-6.38,39.86,0L867.46,312.79z"/>
			<path fill="#11603A" d="M543.22,521.47c-7.86,0-15.74-1.77-21.88-5.32L214.88,339.22c-6.6-3.81-10.24-9.11-10.25-14.92
				c-0.01-5.78,3.58-11.05,10.11-14.84l304.47-176.94c12.22-7.1,31.42-7.1,43.72-0.01l306.46,176.93
				c6.6,3.81,10.24,9.11,10.25,14.92c0.01,5.78-3.58,11.05-10.11,14.84L565.06,516.14C558.94,519.7,551.09,521.47,543.22,521.47z
				 M541.04,134.95c-6.56,0-13.11,1.41-17.97,4.24L218.61,316.12c-3.99,2.32-6.28,5.3-6.27,8.17c0,2.9,2.33,5.91,6.39,8.25
				l306.46,176.93c9.79,5.65,26.27,5.66,36,0l304.47-176.94c3.99-2.32,6.28-5.3,6.27-8.17c0-2.9-2.33-5.91-6.39-8.25L559.07,139.19
				C554.18,136.37,547.6,134.95,541.04,134.95z"/>
		</g>
	</g>
	<g>
		<g>
			<g>
				<g>
					<path fill="#5C72AA" d="M662.92,250.78c69.3,40.01,69.66,104.87,0.82,144.88c-68.83,40-180.81,40-250.11-0.01
						c-69.28-40-69.64-104.86-0.82-144.86C481.66,210.78,593.64,210.78,662.92,250.78z"/>
					<path fill="#11603A" d="M538.87,429.51C538.86,429.51,538.87,429.51,538.87,429.51c-47.92,0-93.07-10.84-127.17-30.52
						c-34.86-20.13-54.08-47.12-54.12-76.01c-0.04-28.7,18.89-55.52,53.3-75.52c33.88-19.69,78.92-30.53,126.83-30.53
						c47.9,0,93.06,10.83,127.14,30.51c34.87,20.13,54.1,47.13,54.14,76.02c0.04,28.7-18.89,55.52-53.31,75.53
						C631.81,418.67,586.77,429.51,538.87,429.51z M537.72,224.62c-44.59,0-89.13,9.83-122.97,29.5
						c-31.94,18.56-49.5,43.01-49.47,68.84c0.04,26.03,17.89,50.65,50.27,69.35c68.12,39.33,178.58,39.34,246.25,0.02
						c31.94-18.56,49.52-43.02,49.48-68.85c-0.04-26.03-17.9-50.66-50.29-69.36C626.95,234.45,582.3,224.62,537.72,224.62z"/>
				</g>
			</g>
			<g>
				<g>
					<circle fill="#9EEBFF" cx="419.94" cy="249.24" r="30.55"/>
					<path fill="#11603A" d="M419.94,283.64c-18.97,0-34.4-15.43-34.4-34.4s15.43-34.4,34.4-34.4s34.4,15.43,34.4,34.4
						S438.91,283.64,419.94,283.64z M419.94,222.54c-14.72,0-26.7,11.98-26.7,26.7s11.98,26.7,26.7,26.7s26.7-11.98,26.7-26.7
						S434.66,222.54,419.94,222.54z"/>
				</g>
				<g>
					<circle fill="#11603A" cx="419.94" cy="249.24" r="14.33"/>
					<path fill="#11603A" d="M419.94,267.41c-10.02,0-18.18-8.16-18.18-18.18s8.15-18.18,18.18-18.18s18.18,8.16,18.18,18.18
						S429.96,267.41,419.94,267.41z M419.94,238.76c-5.77,0-10.47,4.7-10.47,10.47s4.7,10.47,10.47,10.47
						c5.78,0,10.47-4.7,10.47-10.47S425.71,238.76,419.94,238.76z"/>
				</g>
				<g>
					<circle fill="#9EEBFF" cx="656.63" cy="249.24" r="30.55"/>
					<path fill="#11603A" d="M656.63,283.64c-18.97,0-34.4-15.43-34.4-34.4s15.43-34.4,34.4-34.4s34.4,15.43,34.4,34.4
						S675.6,283.64,656.63,283.64z M656.63,222.54c-14.72,0-26.7,11.98-26.7,26.7s11.98,26.7,26.7,26.7s26.7-11.98,26.7-26.7
						S671.35,222.54,656.63,222.54z"/>
				</g>
				<g>
					<circle fill="#11603A" cx="656.63" cy="249.24" r="14.33"/>
					<path fill="#11603A" d="M656.63,267.41c-10.02,0-18.18-8.16-18.18-18.18s8.16-18.18,18.18-18.18s18.18,8.16,18.18,18.18
						S666.65,267.41,656.63,267.41z M656.63,238.76c-5.78,0-10.47,4.7-10.47,10.47s4.7,10.47,10.47,10.47s10.47-4.7,10.47-10.47
						S662.41,238.76,656.63,238.76z"/>
				</g>
			</g>
			<g>
				<path fill="#9EEBFF" d="M665.95,394.27v-85.14c0-69.7-57.03-126.73-126.73-126.73h0c-69.7,0-126.73,57.03-126.73,126.73v85.82
					c0.38,0.23,0.75,0.48,1.13,0.7c69.3,40.01,181.28,40.01,250.11,0.01C664.49,395.22,665.22,394.74,665.95,394.27z"/>
				<path fill="#11603A" d="M538.87,429.51C538.86,429.51,538.87,429.51,538.87,429.51c-47.92,0-93.07-10.84-127.17-30.52
					c-0.27-0.16-0.54-0.33-0.82-0.5c-0.13-0.08-0.26-0.17-0.39-0.25c-1.15-0.7-1.85-1.95-1.85-3.29v-85.82
					c0-72,58.58-130.58,130.58-130.58c72,0,130.58,58.58,130.58,130.58v85.14c0,1.31-0.67,2.53-1.77,3.24l-0.29,0.19
					c-0.69,0.44-1.37,0.88-2.07,1.29C631.81,418.67,586.77,429.51,538.87,429.51z M416.35,392.77
					c68.19,38.87,178.05,38.73,245.45-0.44c0.1-0.06,0.2-0.12,0.3-0.18v-83.02c0-67.75-55.12-122.87-122.87-122.87
					s-122.87,55.12-122.87,122.87V392.77z M665.95,394.27L665.95,394.27L665.95,394.27z"/>
			</g>
			<g>
				<circle fill="#FFFFFF" cx="482.61" cy="273.21" r="33.66"/>
				<path fill="#11603A" d="M482.61,308.8c-19.62,0-35.59-15.97-35.59-35.59s15.97-35.59,35.59-35.59s35.59,15.97,35.59,35.59
					S502.23,308.8,482.61,308.8z M482.61,241.48c-17.5,0-31.74,14.24-31.74,31.74s14.24,31.74,31.74,31.74s31.74-14.24,31.74-31.74
					S500.11,241.48,482.61,241.48z"/>
			</g>
			<g>
				<circle fill="#FFFFFF" cx="593.96" cy="273.21" r="33.66"/>
				<path fill="#11603A" d="M593.96,308.8c-19.62,0-35.59-15.97-35.59-35.59s15.97-35.59,35.59-35.59s35.59,15.97,35.59,35.59
					S613.58,308.8,593.96,308.8z M593.96,241.48c-17.5,0-31.74,14.24-31.74,31.74s14.24,31.74,31.74,31.74s31.74-14.24,31.74-31.74
					S611.46,241.48,593.96,241.48z"/>
			</g>
			<g>
				<path fill="#FFFFFF" d="M555.48,323.22c0,0-2.07,22.92-17.2,22.92c-15.13,0-17.2-22.92-17.2-22.92H555.48z"/>
				<path fill="#11603A" d="M538.28,348.07c-7.02,0-12.57-4.37-16.05-12.64c-2.5-5.94-3.04-11.79-3.07-12.03
					c-0.05-0.54,0.13-1.07,0.5-1.47s0.88-0.63,1.42-0.63h34.39c0.54,0,1.06,0.23,1.42,0.63s0.54,0.93,0.5,1.47
					c-0.02,0.25-0.57,6.1-3.07,12.03C550.86,343.69,545.31,348.07,538.28,348.07z M523.3,325.14c0.92,5.35,4.31,19.07,14.98,19.07
					c10.69,0,14.07-13.72,14.98-19.07H523.3z"/>
			</g>
			<g>
				<line fill="#FFFFFF" x1="538.28" y1="323.22" x2="538.28" y2="346.14"/>
				<path fill="#11603A" d="M538.28,348.07c-1.06,0-1.93-0.86-1.93-1.93v-22.92c0-1.06,0.86-1.93,1.93-1.93s1.93,0.86,1.93,1.93
					v22.92C540.21,347.2,539.35,348.07,538.28,348.07z"/>
			</g>
			<g>
				<path fill="#FFF5CA" d="M538.28,325.13c7.15,0,12.75,5.58,20.73,5.58c7.53,0,13.99-4.59,13.99-12.05
					c0-13.22-17.88-24.39-34.73-24.39c-16.85,0-34.73,11.17-34.73,24.39c0,7.46,6.46,12.05,13.99,12.05
					C525.53,330.71,531.14,325.13,538.28,325.13z"/>
				<path fill="#11603A" d="M559.02,332.64c-4.49,0-8.16-1.56-11.71-3.06c-3.06-1.3-5.95-2.52-9.03-2.52
					c-3.08,0-5.97,1.23-9.03,2.52c-3.55,1.5-7.21,3.06-11.71,3.06c-9.23,0-15.92-5.88-15.92-13.97c0-14.82,19.7-26.32,36.66-26.32
					s36.65,11.5,36.65,26.32C574.94,326.76,568.24,332.64,559.02,332.64z M538.28,323.2c3.87,0,7.25,1.44,10.53,2.83
					c3.34,1.42,6.49,2.75,10.2,2.75c6,0,12.07-3.48,12.07-10.12c0-11.34-16.25-22.46-32.8-22.46s-32.8,11.13-32.8,22.46
					c0,6.65,6.07,10.12,12.07,10.12c3.71,0,6.86-1.34,10.2-2.75C531.03,324.64,534.42,323.2,538.28,323.2z"/>
			</g>
			<g>
				<path fill="#11603A" d="M538.28,309.6c23.75-5.29,22.09-17.63,0-17.63C516.19,291.97,514.53,304.31,538.28,309.6z"/>
				<path fill="#11603A" d="M538.28,311.53c-0.14,0-0.28-0.02-0.42-0.05c-12.29-2.74-19.27-7.63-18.67-13.09
					c0.57-5.15,7.88-8.35,19.09-8.35s18.52,3.2,19.09,8.35c0.6,5.46-6.38,10.35-18.67,13.09
					C538.56,311.51,538.42,311.53,538.28,311.53z M538.28,293.9c-10.8,0-15.04,2.94-15.26,4.92c-0.23,2.1,3.66,6.15,15.26,8.81
					c11.6-2.66,15.49-6.71,15.26-8.81C553.33,296.84,549.08,293.9,538.28,293.9z"/>
			</g>
			<g>
				<path fill="#11603A" d="M482.61,286.76c-0.98,0-1.94-0.5-2.48-1.41c-0.82-1.37-0.37-3.14,1-3.96l13.84-8.26l-13.57-8.1
					c-1.37-0.82-1.82-2.59-1-3.96c0.82-1.37,2.59-1.82,3.96-1l17.73,10.58c0.87,0.52,1.41,1.46,1.41,2.48s-0.54,1.96-1.41,2.48
					l-18,10.74C483.63,286.63,483.12,286.76,482.61,286.76z"/>
			</g>
			<g>
				<path fill="#11603A" d="M593.95,286.76c-0.5,0-1.01-0.13-1.48-0.41l-18-10.74c-0.87-0.52-1.41-1.46-1.41-2.48
					s0.54-1.96,1.41-2.48l17.73-10.58c1.37-0.82,3.14-0.37,3.96,1c0.82,1.37,0.37,3.14-1,3.96l-13.57,8.1l13.84,8.26
					c1.37,0.82,1.82,2.59,1,3.96C595.9,286.26,594.94,286.76,593.95,286.76z"/>
			</g>
		</g>
		<g>
			<path fill="#9EEBFF" d="M422.88,376.78c17.08,1.02,36.65,13.77,32.49,32.56c-4.34,19.61-66.76,7.05-63.09-13.95
				C394.54,382.55,410.84,376.06,422.88,376.78z"/>
			<path fill="#11603A" d="M434.74,422.97c-4.46,0-9.16-0.5-13.75-1.41c-8.93-1.77-17.05-4.96-22.88-8.98
				c-9.4-6.49-10.42-13.29-9.62-17.85c1.23-7,6.06-13.08,13.6-17.12c6.24-3.34,14.09-5.08,21.02-4.67l0,0
				c12.39,0.74,24.65,6.86,31.23,15.58c4.85,6.42,6.5,13.91,4.79,21.65C457.11,419.32,446.78,422.97,434.74,422.97z M421.15,380.59
				c-9.63,0-23.26,5.17-25.07,15.47c-1.35,7.69,12.37,15.17,26.4,17.95c14.99,2.97,27.79,0.56,29.13-5.5
				c1.23-5.55,0.08-10.71-3.42-15.34c-5.2-6.89-15.47-11.93-25.54-12.53h0C422.16,380.6,421.66,380.59,421.15,380.59z"/>
		</g>
		<g>
			<path fill="#9EEBFF" d="M658.75,376.78c-17.08,1.02-36.65,13.77-32.49,32.56c4.34,19.61,66.76,7.05,63.09-13.95
				C687.1,382.55,670.79,376.06,658.75,376.78z"/>
			<path fill="#11603A" d="M646.89,422.97c-12.04,0-22.37-3.65-24.39-12.8c-1.71-7.74-0.06-15.23,4.79-21.65
				c6.58-8.72,18.84-14.84,31.23-15.58c14.67-0.87,32.06,7.2,34.62,21.79c0.8,4.56-0.22,11.36-9.62,17.85
				c-5.82,4.02-13.95,7.21-22.88,8.98C656.05,422.47,651.35,422.97,646.89,422.97z M660.48,380.59c-0.51,0-1.01,0.01-1.5,0.04l0,0
				c-10.08,0.6-20.34,5.64-25.54,12.53c-3.5,4.63-4.65,9.79-3.42,15.34c1.34,6.05,14.13,8.46,29.12,5.5
				c14.04-2.78,27.75-10.25,26.4-17.95C683.75,385.76,670.12,380.59,660.48,380.59z M658.75,376.78L658.75,376.78L658.75,376.78z"/>
		</g>
	</g>
	<g>
		<g>
			<path fill="#DCF3FF" d="M257.07,28.6c6.26-3.61,11.33-0.71,11.35,6.47l0.22,79.2c0.02,7.19-5.03,15.94-11.28,19.55l-25.49,14.72
				l-6.69,17.29c-0.5,1.28-1.37,2.29-2.24,2.79c-0.87,0.5-1.75,0.51-2.25-0.2l-6.77-9.51l-25.49,14.72
				c-6.26,3.61-11.33,0.71-11.35-6.48l-0.22-79.2c-0.02-7.18,5.03-15.93,11.28-19.54L257.07,28.6z"/>
			<path fill="#11603A" d="M183.34,179.01c-1.75,0-3.39-0.42-4.85-1.26c-3.33-1.91-5.24-5.78-5.25-10.61L173,87.94
				c-0.02-8.54,5.78-18.6,13.21-22.89l68.93-39.8l0,0c4.21-2.43,8.54-2.72,11.88-0.8c3.32,1.91,5.24,5.78,5.25,10.6l0.22,79.21
				c0.02,8.55-5.78,18.61-13.21,22.9l-24.31,14.04l-6.2,16.02c-0.78,2.03-2.21,3.75-3.91,4.74c-2.67,1.54-5.68,1.01-7.32-1.31
				l-4.73-6.65l-22.45,12.96C187.99,178.32,185.58,179.01,183.34,179.01z M258.99,31.93l-68.93,39.8
				c-5.09,2.94-9.37,10.35-9.35,16.19l0.22,79.21c0.01,1.98,0.53,3.45,1.39,3.95c0.88,0.51,2.44,0.21,4.18-0.8L212,155.57
				c1.72-0.99,3.91-0.51,5.07,1.1l4.88,6.86l6.34-16.38c0.32-0.82,0.9-1.51,1.67-1.95l25.49-14.71c5.09-2.94,9.37-10.36,9.35-16.2
				l-0.22-79.21c-0.01-1.97-0.53-3.44-1.39-3.94C262.3,30.63,260.73,30.93,258.99,31.93L258.99,31.93z M223.83,166.18L223.83,166.18
				C223.83,166.18,223.83,166.18,223.83,166.18z"/>
		</g>
	</g>
	<g>
		<g>
			<polygon fill="#EEF6FF" points="926.6,69.84 858.72,109.28 790.4,69.84 858.29,30.39 			"/>
			<path fill="#11603A" d="M858.72,113.14c-0.67,0-1.33-0.17-1.93-0.52l-68.32-39.44c-1.19-0.69-1.92-1.96-1.93-3.33
				s0.73-2.65,1.92-3.34l67.88-39.45c1.19-0.69,2.67-0.7,3.86-0.01l68.32,39.44c1.19,0.69,1.92,1.96,1.93,3.33s-0.73,2.65-1.92,3.34
				l-67.88,39.45C860.05,112.96,859.39,113.14,858.72,113.14z M798.09,69.83l60.62,35l60.2-34.99l-60.62-35L798.09,69.83z"/>
		</g>
	</g>
	<g>
		<g>
			<polygon fill="#B3BCE8" points="926.6,69.84 926.38,148.34 858.49,187.79 858.72,109.28 			"/>
			<path fill="#11603A" d="M858.49,191.65c-0.67,0-1.33-0.17-1.93-0.52c-1.2-0.69-1.93-1.97-1.93-3.35l0.22-78.51
				c0-1.37,0.73-2.63,1.92-3.32l67.88-39.45c1.19-0.69,2.67-0.7,3.86-0.01c1.2,0.69,1.93,1.97,1.93,3.35l-0.22,78.51
				c0,1.37-0.73,2.63-1.92,3.32l-67.88,39.45C859.83,191.47,859.16,191.65,858.49,191.65z M862.56,111.51l-0.2,69.58l60.17-34.96
				l0.2-69.58L862.56,111.51z"/>
		</g>
	</g>
	<g>
		<g>
			<polygon fill="#CED8F4" points="858.72,109.28 858.49,187.79 790.18,148.35 790.4,69.84 			"/>
			<path fill="#11603A" d="M858.49,191.65c-0.67,0-1.33-0.17-1.93-0.52l-68.32-39.44c-1.2-0.69-1.93-1.97-1.93-3.35l0.22-78.51
				c0-1.37,0.74-2.64,1.93-3.33s2.66-0.68,3.85,0l68.32,39.44c1.2,0.69,1.93,1.97,1.93,3.35l-0.22,78.51c0,1.37-0.74,2.64-1.93,3.33
				C859.82,191.47,859.16,191.65,858.49,191.65z M794.04,146.13l60.62,35l0.2-69.63l-60.62-35L794.04,146.13z"/>
		</g>
	</g>
	<g>
		<path fill="#EBF1FF" d="M287.72,503.87L233,406.72l-54.89,97.19h0c-8.44,12.32-4.01,26.93,13.27,36.9
			c23.14,13.36,60.52,13.36,83.5,0C292.07,530.83,296.33,516.2,287.72,503.87z"/>
		<path fill="#11603A" d="M233.19,554.61c-15.82,0-31.65-3.49-43.74-10.46c-10.3-5.95-16.79-13.66-18.75-22.28
			c-1.54-6.8-0.12-13.7,4.11-19.96l54.83-97.08c0.68-1.21,1.97-1.96,3.35-1.96c0,0,0,0,0,0c1.39,0,2.67,0.75,3.35,1.96l54.63,96.99
			c4.35,6.3,5.85,13.25,4.34,20.11c-1.9,8.6-8.3,16.28-18.5,22.21C264.81,551.13,249.01,554.61,233.19,554.61z M181.54,505.67
			c-0.07,0.14-0.16,0.28-0.25,0.42c-3.08,4.49-4.14,9.36-3.07,14.07c1.45,6.39,6.81,12.54,15.08,17.32
			c22.03,12.72,57.76,12.72,79.64,0.01c8.29-4.82,13.43-10.77,14.85-17.21c1.05-4.75-0.07-9.67-3.24-14.2
			c-0.07-0.1-0.14-0.21-0.2-0.32L233,414.57L181.54,505.67z"/>
	</g>
	<g>
		<circle fill="#EBF1FF" cx="851.89" cy="476.58" r="61.8"/>
		<path fill="#11603A" d="M851.89,542.23c-36.2,0-65.65-29.45-65.65-65.65s29.45-65.65,65.65-65.65s65.65,29.45,65.65,65.65
			S888.09,542.23,851.89,542.23z M851.89,418.64c-31.95,0-57.94,25.99-57.94,57.94s25.99,57.94,57.94,57.94s57.94-25.99,57.94-57.94
			S883.84,418.64,851.89,418.64z"/>
	</g>
	<g>
		<g>
			<path fill="#11603A" d="M92.33,226.82c5.27,3.04,5.29,7.97,0.06,11.01c-5.23,3.04-13.74,3.04-19.01,0
				c-5.26-3.04-5.29-7.97-0.06-11.01C78.56,223.78,87.07,223.78,92.33,226.82z"/>
			<path fill="#11603A" d="M82.9,243.95c-4.11,0-8.23-0.93-11.44-2.78c-3.74-2.16-5.89-5.39-5.89-8.85c0-3.45,2.12-6.67,5.82-8.82
				c6.39-3.72,16.44-3.72,22.87-0.01l0,0c3.74,2.16,5.89,5.39,5.89,8.85c0.01,3.45-2.12,6.67-5.82,8.82
				C91.13,243.02,87.02,243.95,82.9,243.95z M82.82,228.4c-2.78,0-5.55,0.58-7.56,1.75c-1.37,0.8-1.99,1.65-1.99,2.15
				c0,0.51,0.63,1.38,2.04,2.19c4.05,2.34,11.13,2.34,15.14,0.01c1.38-0.8,1.99-1.66,1.99-2.15c0-0.51-0.63-1.38-2.04-2.19l0,0
				C88.38,228.98,85.6,228.4,82.82,228.4z"/>
		</g>
	</g>
	<g>
		<g>
			<path fill="#11603A" d="M1044.56,428.66c5.27,3.04,5.29,7.97,0.06,11.01c-5.23,3.04-13.74,3.04-19.01,0
				c-5.26-3.04-5.29-7.97-0.06-11.01C1030.79,425.62,1039.29,425.62,1044.56,428.66z"/>
			<path fill="#11603A" d="M1035.13,445.79c-4.11,0-8.23-0.93-11.44-2.78c-3.74-2.16-5.89-5.39-5.89-8.85
				c0-3.45,2.12-6.67,5.82-8.82c6.39-3.71,16.44-3.72,22.87-0.01h0c3.74,2.16,5.89,5.39,5.89,8.86c0,3.45-2.12,6.67-5.82,8.82
				C1043.36,444.86,1039.25,445.79,1035.13,445.79z M1035.04,430.24c-2.78,0-5.55,0.58-7.55,1.75c-1.37,0.8-1.99,1.65-1.99,2.15
				c0,0.51,0.63,1.38,2.04,2.19c4.05,2.34,11.13,2.34,15.14,0c1.38-0.8,1.99-1.65,1.99-2.15c0-0.51-0.63-1.38-2.04-2.19l0,0
				C1040.61,430.83,1037.82,430.24,1035.04,430.24z"/>
		</g>
	</g>
	<g>
		<g>
			<path fill="#11603A" d="M763.86,83.35c5.27,3.04,5.29,7.97,0.06,11.01c-5.23,3.04-13.74,3.04-19.01,0
				c-5.26-3.04-5.29-7.97-0.06-11.01C750.09,80.32,758.6,80.32,763.86,83.35z"/>
			<path fill="#11603A" d="M754.44,100.48c-4.11,0-8.23-0.93-11.44-2.78c-3.74-2.16-5.89-5.39-5.89-8.85c0-3.45,2.12-6.67,5.82-8.82
				c6.39-3.72,16.44-3.72,22.87-0.01c0,0,0,0,0,0c3.74,2.16,5.89,5.39,5.89,8.85c0,3.45-2.12,6.67-5.82,8.82
				C762.66,99.55,758.55,100.48,754.44,100.48z M754.35,84.94c-2.78,0-5.55,0.58-7.55,1.75c-1.37,0.8-1.99,1.65-1.99,2.15
				c0,0.51,0.63,1.38,2.04,2.19c4.05,2.34,11.12,2.34,15.14,0.01c1.38-0.8,1.99-1.66,1.99-2.15c0-0.51-0.63-1.38-2.04-2.19
				C759.91,85.52,757.13,84.94,754.35,84.94z"/>
		</g>
	</g>
	<g>
		<g>
			<path fill="#11603A" d="M373.03,564.65c5.27,3.04,5.29,7.97,0.06,11.01c-5.23,3.04-13.74,3.04-19.01,0
				c-5.26-3.04-5.29-7.97-0.06-11.01C359.26,561.61,367.77,561.61,373.03,564.65z"/>
			<path fill="#11603A" d="M363.6,581.78c-4.11,0-8.23-0.93-11.44-2.78c-3.74-2.16-5.89-5.39-5.89-8.85c0-3.45,2.12-6.67,5.82-8.82
				c6.39-3.72,16.44-3.72,22.87-0.01l0,0c3.74,2.16,5.89,5.39,5.89,8.85c0.01,3.45-2.12,6.67-5.82,8.82
				C371.83,580.85,367.72,581.78,363.6,581.78z M363.52,566.23c-2.78,0-5.55,0.58-7.55,1.75c-1.37,0.8-1.99,1.65-1.99,2.15
				c0,0.51,0.63,1.38,2.04,2.19c4.05,2.34,11.13,2.34,15.14,0.01c1.37-0.8,1.99-1.66,1.99-2.15c0-0.51-0.63-1.38-2.04-2.19
				c0,0,0,0,0,0C369.08,566.82,366.3,566.23,363.52,566.23z"/>
		</g>
	</g>
	<g>
		<g>
			<path fill="#11603A" d="M359.59,622.67c5.27,3.04,5.29,7.97,0.06,11.01c-5.23,3.04-13.74,3.04-19.01,0
				c-5.26-3.04-5.29-7.97-0.06-11.01C345.82,619.63,354.33,619.63,359.59,622.67z"/>
			<path fill="#11603A" d="M350.17,639.79c-4.11,0-8.23-0.93-11.44-2.78c-3.74-2.16-5.89-5.39-5.89-8.85c0-3.45,2.12-6.67,5.82-8.82
				c6.39-3.72,16.44-3.72,22.87-0.01l0,0c3.74,2.16,5.89,5.39,5.89,8.85c0.01,3.45-2.12,6.67-5.82,8.82
				C358.39,638.87,354.28,639.79,350.17,639.79z M350.08,624.25c-2.78,0-5.55,0.58-7.55,1.75c-1.37,0.8-1.99,1.65-1.99,2.15
				c0,0.5,0.63,1.38,2.04,2.19c4.05,2.34,11.13,2.34,15.14,0.01c1.37-0.8,1.99-1.66,1.99-2.15c0-0.51-0.63-1.38-2.04-2.19
				c0,0,0,0,0,0C355.64,624.83,352.86,624.25,350.08,624.25z"/>
		</g>
	</g>
	<g>
		<g>
			<path fill="#11603A" d="M1055.61,482.71c5.27,3.04,5.29,7.97,0.06,11.01c-5.23,3.04-13.74,3.04-19.01,0
				c-5.26-3.04-5.29-7.97-0.06-11.01C1041.84,479.67,1050.35,479.67,1055.61,482.71z"/>
			<path fill="#11603A" d="M1046.18,499.84c-4.11,0-8.23-0.93-11.44-2.78c-3.74-2.16-5.89-5.39-5.89-8.85
				c0-3.45,2.12-6.67,5.82-8.82c6.39-3.71,16.44-3.72,22.87-0.01l0,0c3.74,2.16,5.89,5.39,5.89,8.85c0,3.45-2.12,6.67-5.82,8.82
				C1054.41,498.91,1050.3,499.84,1046.18,499.84z M1046.09,484.3c-2.78,0-5.55,0.58-7.55,1.75c-1.37,0.8-1.99,1.65-1.99,2.15
				c0,0.5,0.63,1.38,2.04,2.19c4.05,2.34,11.13,2.34,15.14,0.01c1.38-0.8,1.99-1.66,1.99-2.15c0-0.5-0.63-1.38-2.04-2.19l0,0
				C1051.66,484.88,1048.87,484.3,1046.09,484.3z"/>
		</g>
	</g>
</g>
</svg>
