<?xml version="1.0" encoding="utf-8"?>
<!-- Generator: Adobe Illustrator 27.2.0, SVG Export Plug-In . SVG Version: 6.00 Build 0)  -->
<svg version="1.1" id="图层_2" xmlns="http://www.w3.org/2000/svg" xmlns:xlink="http://www.w3.org/1999/xlink" x="0px" y="0px"
	 viewBox="0 0 1129 663" style="enable-background:new 0 0 1129 663;" xml:space="preserve">
<style type="text/css">
	.st0{fill:#11603A;stroke:#11603A;stroke-width:7.7047;stroke-linecap:round;stroke-linejoin:round;stroke-miterlimit:10;}
	.st1{fill:#A2EAC5;stroke:#11603A;stroke-width:7.7047;stroke-linecap:round;stroke-linejoin:round;stroke-miterlimit:10;}
	.st2{fill:#11603A;stroke:#11603A;stroke-width:9.6309;stroke-linecap:round;stroke-linejoin:round;stroke-miterlimit:10;}
	.st3{fill:#89AFD3;stroke:#11603A;stroke-width:3.8524;stroke-linecap:round;stroke-linejoin:round;stroke-miterlimit:10;}
	.st4{fill:#D0E1F4;stroke:#11603A;stroke-width:3.8524;stroke-linecap:round;stroke-linejoin:round;stroke-miterlimit:10;}
	.st5{fill:#E8FFD4;stroke:#11603A;stroke-width:3.8524;stroke-linecap:round;stroke-linejoin:round;stroke-miterlimit:10;}
	.st6{fill:#9DD2EA;stroke:#11603A;stroke-width:3.8524;stroke-linecap:round;stroke-linejoin:round;stroke-miterlimit:10;}
	.st7{fill:#DCF0FF;stroke:#11603A;stroke-width:3.8524;stroke-linecap:round;stroke-linejoin:round;stroke-miterlimit:10;}
	.st8{fill:#C1E1F4;stroke:#11603A;stroke-width:3.8524;stroke-linecap:round;stroke-linejoin:round;stroke-miterlimit:10;}
	.st9{fill:#BDDFF4;stroke:#11603A;stroke-width:3.8524;stroke-linecap:round;stroke-linejoin:round;stroke-miterlimit:10;}
	.st10{fill:#D0E1F4;stroke:#11603A;stroke-width:7.7047;stroke-linecap:round;stroke-linejoin:round;stroke-miterlimit:10;}
	.st11{fill:#FFFFFF;stroke:#11603A;stroke-width:7.7047;stroke-linecap:round;stroke-linejoin:round;stroke-miterlimit:10;}
	.st12{opacity:0.5;}
	.st13{fill:#FFFFFF;}
	.st14{fill:none;stroke:#11603A;stroke-width:7.7047;stroke-linecap:round;stroke-linejoin:round;stroke-miterlimit:10;}
	.st15{fill:#DCF0FF;}
	.st16{fill:#9EEBFF;stroke:#11603A;stroke-width:7.7047;stroke-linecap:round;stroke-linejoin:round;stroke-miterlimit:10;}
	.st17{opacity:0.36;}
	.st18{fill:#A4FFC4;}
	.st19{fill:#E3F2FF;}
	.st20{opacity:0.6;}
	.st21{fill:none;stroke:#11603A;stroke-width:3.8524;stroke-linecap:round;stroke-linejoin:round;stroke-miterlimit:10;}
	.st22{fill:#E6FFF0;stroke:#11603A;stroke-width:7.7047;stroke-linecap:round;stroke-linejoin:round;stroke-miterlimit:10;}
</style>
<g>
	<g>
		<path class="st0" d="M472.58,474c68.88,39.77,69.24,104.24,0.81,144c-68.41,39.76-179.71,39.76-248.59-0.01
			c-68.86-39.76-69.22-104.23-0.81-143.98C292.42,434.24,403.72,434.24,472.58,474z"/>
	</g>
	<g>
		<path class="st1" d="M958.56,184.98c7.17,4.14,12.95,14.15,12.92,22.38l-0.36,125.95c-0.02,8.22-5.84,11.54-13.01,7.4
			L848.5,277.43c-7.16-4.13-12.94-14.15-12.92-22.37l0.36-125.95c0.02-8.22,5.84-11.54,13-7.41L958.56,184.98z"/>
	</g>
	<polygon class="st2" points="879.83,211.11 540.48,15.18 529.97,19.6 497.59,243.37 301.47,357.34 301.47,368.37 640.81,564.29 
		837.08,450.23 837.08,439.53 847.4,435.2 	"/>
	<polygon class="st3" points="540.48,15.18 529.97,19.6 538.21,30.87 508.05,239.27 823.64,421.48 836.89,439.61 847.4,435.2 
		879.83,211.11 	"/>
	<g>
		<polygon class="st4" points="869.32,215.52 836.89,439.61 497.54,243.69 529.97,19.6 		"/>
	</g>
	<g>
		<polygon class="st5" points="860.69,220.2 830.91,425.97 505.15,237.34 534.92,31.57 		"/>
	</g>
	<polygon class="st6" points="811.11,435.24 497.73,254.31 316.49,359.64 301.47,357.34 301.47,368.37 640.81,564.29 837.08,450.23 
		837.08,439.21 	"/>
	<g>
		<polygon class="st7" points="837.08,439.21 640.81,553.27 301.47,357.34 497.73,243.29 		"/>
	</g>
	<g>
		<polygon class="st8" points="820.9,438.15 710.67,501.37 387.62,316.2 497.85,252.98 		"/>
	</g>
	<g>
		<polygon class="st9" points="607.46,453.97 546.79,488.77 428.1,419.85 488.77,385.05 		"/>
	</g>
	<g>
		<path class="st10" d="M465.08,64.21c9.37,5.41,16.94,18.54,16.91,29.3l-0.26,92.94c-0.03,10.77-7.65,15.11-17.02,9.7l-80.88-46.7
			c-9.38-5.42-16.95-18.53-16.92-29.29l0.26-92.94c0.03-10.77,7.65-15.12,17.03-9.71L465.08,64.21z"/>
	</g>
	<g>
		<path class="st11" d="M1030.88,520.47c9.48,5.47,17.14,18.74,17.11,29.65l-0.14,50.46c-0.03,10.9-7.74,15.3-17.22,9.83
			l-81.86-47.26c-9.48-5.47-17.14-18.76-17.11-29.65l0.14-50.46c0.03-10.91,7.74-15.3,17.22-9.83L1030.88,520.47z"/>
	</g>
	<g>
		<path class="st10" d="M962.04,389.35c5.24,3.02,9.46,10.36,9.45,16.37l-0.08,28.6c-0.02,6.02-4.27,8.45-9.51,5.43l-24.89-14.37
			c-5.24-3.03-9.47-10.36-9.46-16.38l0.08-28.6c0.02-6.02,4.27-8.45,9.52-5.42L962.04,389.35z"/>
	</g>
	<g>
		<path class="st10" d="M136.58,166.85c8.44,4.87,15.25,16.69,15.22,26.38l-0.13,46.08c-0.03,9.69-6.89,13.62-15.32,8.75
			l-40.1-23.15c-8.45-4.88-15.26-16.7-15.24-26.39l0.13-46.08c0.03-9.69,6.89-13.62,15.34-8.74L136.58,166.85z"/>
	</g>
	<g class="st12">
		<path class="st13" d="M418.23,118.85c8.42,4.86,15.21,16.65,15.19,26.32l-0.57,200.52c-0.03,9.67-6.87,13.57-15.29,8.71
			L243.05,253.65c-8.42-4.86-15.23-16.64-15.2-26.31l0.57-200.52c0.03-9.67,6.88-13.58,15.3-8.72L418.23,118.85z"/>
	</g>
	<g>
		<path class="st14" d="M418.23,118.85c8.42,4.86,15.21,16.65,15.19,26.32l-0.57,200.52c-0.03,9.67-6.87,13.57-15.29,8.71
			L243.05,253.65c-8.42-4.86-15.23-16.64-15.2-26.31l0.57-200.52c0.03-9.67,6.88-13.58,15.3-8.72L418.23,118.85z"/>
	</g>
	<g>
		<path class="st7" d="M389.81,140.44c6.09,3.52,11.01,12.03,10.99,19.02c-0.02,7-4.97,9.82-11.06,6.3L264.61,93.52
			c-6.09-3.52-11.01-12.03-10.99-19.03c0.02-6.99,4.97-9.81,11.06-6.29L389.81,140.44z"/>
	</g>
	<g>
		<path class="st7" d="M389.81,186.54c6.09,3.52,11.01,12.03,10.99,19.02c-0.02,7-4.97,9.82-11.06,6.3l-125.13-72.24
			c-6.09-3.52-11.01-12.03-10.99-19.03c0.02-6.99,4.97-9.81,11.06-6.29L389.81,186.54z"/>
	</g>
	<g>
		<path class="st7" d="M389.81,232.64c6.09,3.52,11.01,12.03,10.99,19.02c-0.02,7-4.97,9.82-11.06,6.3l-125.13-72.24
			c-6.09-3.52-11.01-12.03-10.99-19.03c0.02-6.99,4.97-9.81,11.06-6.29L389.81,232.64z"/>
	</g>
	<g>
		<path class="st7" d="M389.81,278.74c6.09,3.52,11.01,12.03,10.99,19.02c-0.02,7-4.97,9.82-11.06,6.3l-125.13-72.24
			c-6.09-3.52-11.01-12.03-10.99-19.03c0.02-6.99,4.97-9.81,11.06-6.29L389.81,278.74z"/>
	</g>
	<g class="st12">
		<path class="st15" d="M882.79,250.23c7.92,4.57,14.32,15.67,14.29,24.77l-0.22,78.56c-0.03,9.1-6.47,12.77-14.39,8.2l-68.37-39.47
			c-7.93-4.58-14.33-15.66-14.3-24.76l0.22-78.56c0.03-9.1,6.47-12.78,14.4-8.2L882.79,250.23z"/>
	</g>
	<g>
		<path class="st14" d="M882.79,250.23c7.92,4.57,14.32,15.67,14.29,24.77l-0.22,78.56c-0.03,9.1-6.47,12.77-14.39,8.2l-68.37-39.47
			c-7.93-4.58-14.33-15.66-14.3-24.76l0.22-78.56c0.03-9.1,6.47-12.78,14.4-8.2L882.79,250.23z"/>
	</g>
	<circle class="st16" cx="265.7" cy="297.03" r="33.75"/>
	<path class="st16" d="M348.7,276.92L348.7,276.92c-77,0-140,63-140,140v189.94c4.88,3.72,10.23,7.3,16.1,10.7
		c68.88,39.77,180.18,39.77,248.59,0.01c5.57-3.23,10.65-6.64,15.31-10.17V416.92C488.7,339.92,425.7,276.92,348.7,276.92z"/>
	<path class="st16" d="M483.61,396.81c-20.54,10.54-33.68-4.08-44.22-24.62c-10.54-20.54-14.48-39.21,6.06-49.75
		c20.54-10.54,45.73-2.43,56.27,18.11C512.26,361.08,504.15,386.27,483.61,396.81z"/>
	<g class="st17">
		<path class="st18" d="M224.74,350.88c11.47,6.62,20.73,22.69,20.7,35.87l-0.32,113.76c-0.04,13.18-9.36,18.49-20.83,11.87
			l-99-57.16c-11.48-6.63-20.75-22.68-20.71-35.86l0.32-113.76c0.04-13.18,9.36-18.51,20.85-11.88L224.74,350.88z"/>
	</g>
	<g>
		<path class="st14" d="M224.74,350.88c11.47,6.62,20.73,22.69,20.7,35.87l-0.32,113.76c-0.04,13.18-9.36,18.49-20.83,11.87
			l-99-57.16c-11.48-6.63-20.75-22.68-20.71-35.86l0.32-113.76c0.04-13.18,9.36-18.51,20.85-11.88L224.74,350.88z"/>
	</g>
	<g class="st12">
		<path class="st19" d="M802.57,333.52c9.38,5.41,16.95,18.54,16.92,29.31l-0.4,140.06c-0.03,10.79-7.66,15.13-17.03,9.72
			l-221.7-128c-9.38-5.41-16.95-18.54-16.92-29.32l0.4-140.06c0.03-10.77,7.66-15.12,17.03-9.71L802.57,333.52z"/>
	</g>
	<g>
		<path class="st14" d="M802.57,333.52c9.38,5.41,16.95,18.54,16.92,29.31l-0.4,140.06c-0.03,10.79-7.66,15.13-17.03,9.72
			l-221.7-128c-9.38-5.41-16.95-18.54-16.92-29.32l0.4-140.06c0.03-10.77,7.66-15.12,17.03-9.71L802.57,333.52z"/>
	</g>
	<path class="st16" d="M459.39,448.25c0,0,20.02,0.63,43.42-8.64c22.14-8.77,37.92-20.53,48.03-27.83
		c7.21-5.2,22.82,1.03,16.04,20.62c-6.78,19.59-38.66,66.88-100.71,90.92"/>
	<g class="st20">
		<path class="st13" d="M688.65,298.84c2.88,1.66,5.21,5.7,5.2,9.01l-0.31,110.73c-0.01,3.31-2.35,4.65-5.23,2.98l-96.35-55.63
			c-2.88-1.66-5.22-5.7-5.21-9.01l0.31-110.73c0.01-3.31,2.36-4.64,5.25-2.98L688.65,298.84z"/>
	</g>
	<g class="st20">
		<path class="st13" d="M787.98,358.33c3.95,2.28,7.14,7.8,7.13,12.35s-3.22,6.38-7.17,4.1l-71.71-41.4
			c-3.96-2.29-7.15-7.82-7.14-12.37s3.22-6.37,7.19-4.08L787.98,358.33z"/>
	</g>
	<g class="st20">
		<path class="st13" d="M787.98,389.93c3.95,2.28,7.14,7.8,7.13,12.35s-3.22,6.38-7.17,4.1l-71.71-41.4
			c-3.96-2.29-7.15-7.82-7.14-12.37s3.22-6.37,7.19-4.08L787.98,389.93z"/>
	</g>
	<g class="st20">
		<path class="st13" d="M787.98,421.53c3.95,2.28,7.14,7.8,7.13,12.35s-3.22,6.38-7.17,4.1l-71.71-41.4
			c-3.96-2.29-7.15-7.82-7.14-12.37s3.22-6.37,7.19-4.08L787.98,421.53z"/>
	</g>
	<g>
		<path class="st13" d="M787.98,453.13c3.95,2.28,7.14,7.8,7.13,12.35s-3.22,6.38-7.17,4.1l-71.71-41.4
			c-3.96-2.29-7.15-7.82-7.14-12.37s3.22-6.37,7.19-4.08L787.98,453.13z"/>
	</g>
	<g>
		<path class="st21" d="M688.65,298.84c2.88,1.66,5.21,5.7,5.2,9.01l-0.31,110.73c-0.01,3.31-2.35,4.65-5.23,2.98l-96.35-55.63
			c-2.88-1.66-5.22-5.7-5.21-9.01l0.31-110.73c0.01-3.31,2.36-4.64,5.25-2.98L688.65,298.84z"/>
	</g>
	<g>
		<path class="st21" d="M787.98,358.33c3.95,2.28,7.14,7.8,7.13,12.35s-3.22,6.38-7.17,4.1l-71.71-41.4
			c-3.96-2.29-7.15-7.82-7.14-12.37s3.22-6.37,7.19-4.08L787.98,358.33z"/>
	</g>
	<g>
		<path class="st21" d="M787.98,389.93c3.95,2.28,7.14,7.8,7.13,12.35s-3.22,6.38-7.17,4.1l-71.71-41.4
			c-3.96-2.29-7.15-7.82-7.14-12.37s3.22-6.37,7.19-4.08L787.98,389.93z"/>
	</g>
	<g>
		<path class="st21" d="M787.98,421.53c3.95,2.28,7.14,7.8,7.13,12.35s-3.22,6.38-7.17,4.1l-71.71-41.4
			c-3.96-2.29-7.15-7.82-7.14-12.37s3.22-6.37,7.19-4.08L787.98,421.53z"/>
	</g>
	<g>
		<path class="st21" d="M787.98,453.13c3.95,2.28,7.14,7.8,7.13,12.35s-3.22,6.38-7.17,4.1l-71.71-41.4
			c-3.96-2.29-7.15-7.82-7.14-12.37s3.22-6.37,7.19-4.08L787.98,453.13z"/>
	</g>
	<g>
		<path class="st22" d="M880.81,472.75c7.47,4.31,13.5,14.76,13.48,23.33l-0.37,131.34c-0.02,8.58-6.09,12.03-13.57,7.72
			l-114.3-65.99c-7.46-4.31-13.49-14.75-13.47-23.33l0.37-131.34c0.02-8.57,6.09-12.03,13.56-7.73L880.81,472.75z"/>
	</g>
</g>
</svg>
