<?xml version="1.0" encoding="utf-8"?>
<!-- Generator: Adobe Illustrator 27.2.0, SVG Export Plug-In . SVG Version: 6.00 Build 0)  -->
<svg version="1.1" id="图层_1" xmlns="http://www.w3.org/2000/svg" xmlns:xlink="http://www.w3.org/1999/xlink" x="0px" y="0px"
	 viewBox="0 0 1129 663" style="enable-background:new 0 0 1129 663;" xml:space="preserve">
<style type="text/css">
	.st0{fill:#F9E2B9;stroke:#11603A;stroke-width:7.7047;stroke-linecap:round;stroke-linejoin:round;stroke-miterlimit:10;}
	.st1{fill:#E2C79C;stroke:#11603A;stroke-width:7.7047;stroke-linecap:round;stroke-linejoin:round;stroke-miterlimit:10;}
	.st2{fill:#FFF9F0;stroke:#11603A;stroke-width:7.7047;stroke-linecap:round;stroke-linejoin:round;stroke-miterlimit:10;}
	.st3{fill:#CCAA7A;stroke:#11603A;stroke-width:7.7047;stroke-linecap:round;stroke-linejoin:round;stroke-miterlimit:10;}
	.st4{fill:#FFF9F0;stroke:#11603A;stroke-width:3.8524;stroke-linecap:round;stroke-linejoin:round;stroke-miterlimit:10;}
	.st5{fill:#9EEBFF;stroke:#11603A;stroke-width:7.7047;stroke-linecap:round;stroke-linejoin:round;stroke-miterlimit:10;}
	.st6{fill:#11603A;stroke:#11603A;stroke-width:7.7047;stroke-linecap:round;stroke-linejoin:round;stroke-miterlimit:10;}
	.st7{fill:#FFFFFF;stroke:#11603A;stroke-width:3.8524;stroke-linecap:round;stroke-linejoin:round;stroke-miterlimit:10;}
	.st8{fill:#11603A;stroke:#11603A;stroke-width:3.8524;stroke-linecap:round;stroke-linejoin:round;stroke-miterlimit:10;}
	.st9{fill:#FFF5CA;stroke:#11603A;stroke-width:3.8524;stroke-linecap:round;stroke-linejoin:round;stroke-miterlimit:10;}
</style>
<g>
	<polygon class="st0" points="885.54,450.25 728.13,384.35 728.13,108.43 885.54,174.34 	"/>
	<polygon class="st1" points="1042.95,384.35 885.54,450.25 885.54,174.34 1042.95,108.43 	"/>
	<polygon class="st0" points="431.16,466.75 171.46,358.01 171.46,122.27 431.16,231.01 	"/>
	<polygon class="st1" points="690.87,358.01 431.16,466.75 431.16,231.01 690.87,122.27 	"/>
	<polygon class="st2" points="171.46,122.27 431.16,13.53 690.87,122.27 431.16,231.01 	"/>
	<polygon class="st0" points="174.24,538.33 86.05,501.41 86.05,421.36 174.24,458.28 	"/>
	<polygon class="st1" points="262.42,501.41 174.24,538.33 174.24,458.28 262.42,421.36 	"/>
	<polygon class="st2" points="86.05,421.36 174.24,384.43 262.42,421.36 174.24,458.28 	"/>
	<polygon class="st1" points="598.01,385.4 284.25,516.78 284.25,345.86 598.01,214.48 	"/>
	<polygon class="st3" points="911.77,345.86 598.01,214.48 598.01,385.4 911.77,516.78 	"/>
	<line class="st4" x1="576.55" y1="172.96" x2="316.85" y2="64.21"/>
	<g>
		<circle class="st5" cx="457.52" cy="223" r="36.56"/>
		<circle class="st6" cx="457.52" cy="223" r="17.14"/>
		<circle class="st5" cx="740.75" cy="223" r="36.56"/>
		<circle class="st6" cx="740.75" cy="223" r="17.14"/>
	</g>
	<path class="st5" d="M600.26,516.15c58.99,0,112.34-5.77,150.72-15.07c0.6-5.43,0.92-10.93,0.92-16.52V294.66
		c0-83.4-68.24-151.64-151.64-151.64h0c-83.4,0-151.64,68.24-151.64,151.64v189.91c0,5.58,0.33,11.09,0.92,16.52
		C487.93,510.39,541.27,516.15,600.26,516.15z"/>
	<circle class="st7" cx="532.52" cy="249.93" r="40.28"/>
	<circle class="st8" cx="533.65" cy="246.39" r="10.16"/>
	<circle class="st7" cx="665.75" cy="249.93" r="40.28"/>
	<circle class="st8" cx="666.88" cy="246.39" r="10.16"/>
	<path class="st7" d="M619.71,311.52c0,0-2.47,27.43-20.58,27.43c-18.1,0-20.58-27.43-20.58-27.43H619.71z"/>
	<line class="st7" x1="599.14" y1="311.52" x2="599.14" y2="338.95"/>
	<path class="st9" d="M599.14,313.81c8.55,0,15.26,6.68,24.81,6.68c9.01,0,16.75-5.49,16.75-14.42c0-15.82-21.4-29.18-41.56-29.18
		c-20.16,0-41.56,13.36-41.56,29.18c0,8.92,7.74,14.42,16.75,14.42C583.88,320.49,590.59,313.81,599.14,313.81z"/>
	<path class="st8" d="M599.14,295.23c28.42-6.33,26.44-21.1,0-21.1S570.72,288.9,599.14,295.23z"/>
	<polygon class="st0" points="598.01,649.47 284.25,518.1 284.25,347.18 598.01,478.55 	"/>
	<polygon class="st2" points="523.15,580.61 209.39,449.24 284.25,347.18 598.01,478.55 	"/>
	<polygon class="st1" points="911.77,518.1 598.01,649.47 598.01,478.55 911.77,347.18 	"/>
	<polygon class="st2" points="672.87,580.61 986.63,449.24 911.77,347.18 598.01,478.55 	"/>
	<path class="st5" d="M460.61,337.82c0,0-56.52,39.32-78.64,46.69s-21.3,23.76,0,27.85c21.3,4.1,90.43-10.65,90.43-10.65"/>
	<path class="st5" d="M739.92,337.82c0,0,56.52,39.32,78.64,46.69s21.3,23.76,0,27.85c-21.3,4.1-90.43-10.65-90.43-10.65"/>
	<polygon class="st2" points="728.13,108.43 885.54,42.52 1042.95,108.43 885.54,174.34 	"/>
	<line class="st4" x1="973.1" y1="137.91" x2="815.69" y2="72"/>
</g>
</svg>
