<?xml version="1.0" encoding="utf-8"?>
<!-- Generator: Adobe Illustrator 27.2.0, SVG Export Plug-In . SVG Version: 6.00 Build 0)  -->
<svg version="1.2" baseProfile="tiny" id="图层_1"
	 xmlns="http://www.w3.org/2000/svg" xmlns:xlink="http://www.w3.org/1999/xlink" x="0px" y="0px" viewBox="0 0 1129 663"
	 overflow="visible" xml:space="preserve">
<g>
	<g>
		<polygon fill="#F9E2B9" points="885.54,450.25 728.13,384.35 728.13,108.43 885.54,174.34 		"/>
		<path fill="#11603A" d="M885.54,454.11c-0.5,0-1.01-0.1-1.49-0.3L726.64,387.9c-1.43-0.6-2.36-2-2.36-3.55V108.43
			c0-1.29,0.65-2.49,1.72-3.21c1.07-0.72,2.43-0.84,3.62-0.35l157.41,65.91c1.43,0.6,2.36,2,2.36,3.55v275.92
			c0,1.29-0.65,2.49-1.72,3.21C887.03,453.89,886.29,454.11,885.54,454.11z M731.98,381.78l149.71,62.68V176.9l-149.71-62.68V381.78
			z"/>
	</g>
	<g>
		<polygon fill="#E2C79C" points="1042.95,384.35 885.54,450.25 885.54,174.34 1042.95,108.43 		"/>
		<path fill="#11603A" d="M885.54,454.11c-0.75,0-1.49-0.22-2.13-0.65c-1.07-0.71-1.72-1.92-1.72-3.21V174.34
			c0-1.55,0.93-2.95,2.36-3.55l157.41-65.91c1.19-0.5,2.55-0.37,3.62,0.35c1.07,0.71,1.72,1.92,1.72,3.21v275.92
			c0,1.55-0.93,2.95-2.36,3.55l-157.41,65.91C886.55,454.01,886.04,454.11,885.54,454.11z M889.39,176.9v267.57l149.71-62.68V114.22
			L889.39,176.9z M1042.95,384.35L1042.95,384.35L1042.95,384.35z"/>
	</g>
	<g>
		<polygon fill="#F9E2B9" points="431.16,466.75 171.46,358.01 171.46,122.27 431.16,231.01 		"/>
		<path fill="#11603A" d="M431.16,470.6c-0.5,0-1.01-0.1-1.49-0.3L169.97,361.56c-1.43-0.6-2.36-2-2.36-3.55V122.27
			c0-1.29,0.65-2.49,1.72-3.21c1.07-0.71,2.43-0.84,3.62-0.35l259.71,108.74c1.43,0.6,2.36,2,2.36,3.55v235.74
			c0,1.29-0.65,2.49-1.72,3.21C432.65,470.38,431.91,470.6,431.16,470.6z M175.31,355.44l252,105.52V233.57l-252-105.52V355.44z"/>
	</g>
	<g>
		<polygon fill="#E2C79C" points="690.87,358.01 431.16,466.75 431.16,231.01 690.87,122.27 		"/>
		<path fill="#11603A" d="M431.16,470.6c-0.75,0-1.49-0.22-2.13-0.65c-1.07-0.71-1.72-1.92-1.72-3.21V231.01
			c0-1.55,0.93-2.95,2.36-3.55l259.71-108.74c1.19-0.5,2.55-0.37,3.62,0.35c1.07,0.71,1.72,1.92,1.72,3.21v235.74
			c0,1.55-0.93,2.95-2.36,3.55L432.65,470.3C432.17,470.5,431.67,470.6,431.16,470.6z M435.01,233.57v227.39l252-105.52V128.06
			L435.01,233.57z M690.87,358.01L690.87,358.01L690.87,358.01z"/>
	</g>
	<g>
		<polygon fill="#FFF9F0" points="171.46,122.27 431.16,13.53 690.87,122.27 431.16,231.01 		"/>
		<path fill="#11603A" d="M431.16,234.86c-0.51,0-1.01-0.1-1.49-0.3L169.97,125.82c-1.43-0.6-2.36-2-2.36-3.55s0.93-2.95,2.36-3.55
			L429.67,9.97c0.95-0.4,2.02-0.4,2.98,0l259.71,108.74c1.43,0.6,2.36,2,2.36,3.55s-0.93,2.95-2.36,3.55L432.65,234.56
			C432.17,234.76,431.67,234.86,431.16,234.86z M181.43,122.27l249.73,104.56l249.73-104.56L431.16,17.7L181.43,122.27z"/>
	</g>
	<g>
		<polygon fill="#F9E2B9" points="174.24,538.33 86.05,501.41 86.05,421.36 174.24,458.28 		"/>
		<path fill="#11603A" d="M174.24,542.18c-0.5,0-1.01-0.1-1.49-0.3l-88.19-36.92c-1.43-0.6-2.36-2-2.36-3.55v-80.05
			c0-1.29,0.65-2.49,1.72-3.21c1.07-0.71,2.43-0.84,3.62-0.35l88.19,36.92c1.43,0.6,2.36,2,2.36,3.55v80.05
			c0,1.29-0.65,2.49-1.72,3.21C175.73,541.96,174.99,542.18,174.24,542.18z M89.9,498.84l80.48,33.7v-71.7l-80.48-33.7V498.84z"/>
	</g>
	<g>
		<polygon fill="#E2C79C" points="262.42,501.41 174.24,538.33 174.24,458.28 262.42,421.36 		"/>
		<path fill="#11603A" d="M174.24,542.18c-0.75,0-1.49-0.22-2.13-0.65c-1.07-0.71-1.72-1.92-1.72-3.21v-80.05
			c0-1.55,0.93-2.95,2.36-3.55l88.19-36.92c1.19-0.5,2.55-0.37,3.62,0.35c1.07,0.71,1.72,1.92,1.72,3.21v80.05
			c0,1.55-0.93,2.95-2.36,3.55l-88.19,36.92C175.25,542.08,174.74,542.18,174.24,542.18z M178.09,460.85v71.7l80.48-33.7v-71.7
			L178.09,460.85z M262.42,501.41L262.42,501.41L262.42,501.41z"/>
	</g>
	<g>
		<polygon fill="#FFF9F0" points="86.05,421.36 174.24,384.43 262.42,421.36 174.24,458.28 		"/>
		<path fill="#11603A" d="M174.24,462.13c-0.51,0-1.01-0.1-1.49-0.3l-88.19-36.92c-1.43-0.6-2.36-2-2.36-3.55s0.93-2.95,2.36-3.55
			l88.19-36.92c0.95-0.4,2.02-0.4,2.98,0l88.19,36.92c1.43,0.6,2.36,2,2.36,3.55s-0.93,2.95-2.36,3.55l-88.19,36.92
			C175.25,462.04,174.74,462.13,174.24,462.13z M96.02,421.36l78.21,32.75l78.21-32.75l-78.21-32.75L96.02,421.36z"/>
	</g>
	<g>
		<polygon fill="#E2C79C" points="598.01,385.4 284.25,516.78 284.25,345.86 598.01,214.48 		"/>
		<path fill="#11603A" d="M284.25,520.63c-0.75,0-1.49-0.22-2.13-0.65c-1.07-0.71-1.72-1.92-1.72-3.21V345.86
			c0-1.55,0.93-2.95,2.36-3.55l313.76-131.38c1.19-0.5,2.55-0.37,3.62,0.35c1.07,0.71,1.72,1.92,1.72,3.21V385.4
			c0,1.55-0.93,2.95-2.36,3.55L285.73,520.33C285.26,520.53,284.75,520.63,284.25,520.63z M288.1,348.42v162.57l306.06-128.15
			V220.27L288.1,348.42z M598.01,385.4L598.01,385.4L598.01,385.4z"/>
	</g>
	<g>
		<polygon fill="#CCAA7A" points="911.77,345.86 598.01,214.48 598.01,385.4 911.77,516.78 		"/>
		<path fill="#11603A" d="M911.78,520.63c-0.5,0-1.01-0.1-1.49-0.3L596.52,388.96c-1.43-0.6-2.36-2-2.36-3.55V214.48
			c0-1.29,0.65-2.49,1.72-3.21c1.07-0.72,2.43-0.85,3.62-0.35L913.26,342.3c1.43,0.6,2.36,2,2.36,3.55v170.92
			c0,1.29-0.65,2.49-1.72,3.21C913.27,520.41,912.52,520.63,911.78,520.63z M601.86,382.84l306.06,128.15V348.42L601.86,220.27
			V382.84z"/>
	</g>
	<g>
		<line fill="#FFF9F0" x1="576.55" y1="172.96" x2="316.85" y2="64.21"/>
		<path fill="#11603A" d="M576.55,174.88c-0.25,0-0.5-0.05-0.74-0.15L316.1,65.99c-0.98-0.41-1.44-1.54-1.03-2.52
			c0.41-0.98,1.54-1.44,2.52-1.03L577.3,171.18c0.98,0.41,1.44,1.54,1.03,2.52C578.02,174.44,577.3,174.88,576.55,174.88z"/>
	</g>
	<g>
		<g>
			<circle fill="#9EEBFF" cx="457.52" cy="223" r="36.56"/>
			<path fill="#11603A" d="M457.52,263.41c-22.28,0-40.41-18.13-40.41-40.41s18.13-40.41,40.41-40.41s40.41,18.13,40.41,40.41
				S479.81,263.41,457.52,263.41z M457.52,190.29c-18.03,0-32.71,14.67-32.71,32.71c0,18.03,14.67,32.71,32.71,32.71
				c18.03,0,32.71-14.67,32.71-32.71C490.23,204.96,475.56,190.29,457.52,190.29z"/>
		</g>
		<g>
			<circle fill="#11603A" cx="457.52" cy="223" r="17.14"/>
			<path fill="#11603A" d="M457.52,243.99c-11.58,0-21-9.42-21-21c0-11.58,9.42-20.99,21-20.99s21,9.42,21,20.99
				C478.52,234.57,469.1,243.99,457.52,243.99z M457.52,209.71c-7.33,0-13.29,5.96-13.29,13.29s5.96,13.29,13.29,13.29
				s13.29-5.96,13.29-13.29S464.85,209.71,457.52,209.71z"/>
		</g>
		<g>
			<circle fill="#9EEBFF" cx="740.75" cy="223" r="36.56"/>
			<path fill="#11603A" d="M740.75,263.41c-22.28,0-40.41-18.13-40.41-40.41s18.13-40.41,40.41-40.41s40.41,18.13,40.41,40.41
				S763.03,263.41,740.75,263.41z M740.75,190.29c-18.03,0-32.71,14.67-32.71,32.71c0,18.03,14.67,32.71,32.71,32.71
				s32.71-14.67,32.71-32.71C773.46,204.96,758.78,190.29,740.75,190.29z"/>
		</g>
		<g>
			<circle fill="#11603A" cx="740.75" cy="223" r="17.14"/>
			<path fill="#11603A" d="M740.75,243.99c-11.58,0-20.99-9.42-20.99-21c0-11.58,9.42-20.99,20.99-20.99s21,9.42,21,20.99
				C761.74,234.57,752.33,243.99,740.75,243.99z M740.75,209.71c-7.33,0-13.29,5.96-13.29,13.29s5.96,13.29,13.29,13.29
				s13.29-5.96,13.29-13.29S748.08,209.71,740.75,209.71z"/>
		</g>
	</g>
	<g>
		<path fill="#9EEBFF" d="M600.26,516.15c58.99,0,112.34-5.77,150.72-15.07c0.6-5.43,0.92-10.93,0.92-16.52V294.66
			c0-83.4-68.24-151.64-151.64-151.64h0c-83.4,0-151.64,68.24-151.64,151.64v189.91c0,5.58,0.33,11.09,0.92,16.52
			C487.93,510.39,541.27,516.15,600.26,516.15z"/>
		<path fill="#11603A" d="M600.26,520.01c-57.39,0-111.24-5.39-151.62-15.18c-1.58-0.38-2.75-1.71-2.92-3.32
			c-0.63-5.73-0.95-11.43-0.95-16.94V294.66c0-41.37,16.22-80.37,45.67-109.82s68.45-45.67,109.82-45.67
			c41.37,0,80.37,16.22,109.82,45.67s45.67,68.45,45.67,109.82v189.91c0,5.51-0.32,11.21-0.95,16.93c-0.18,1.61-1.34,2.94-2.92,3.33
			C711.5,514.62,657.65,520.01,600.26,520.01z M453.11,497.97c39.5,9.25,91.61,14.33,147.16,14.33c55.55,0,107.65-5.08,147.16-14.33
			c0.42-4.54,0.63-9.04,0.63-13.4V294.66c0-39.31-15.42-76.37-43.42-104.37c-28-28-65.06-43.42-104.37-43.42
			s-76.37,15.42-104.37,43.42c-28,28-43.42,65.06-43.42,104.37v189.91C452.48,488.94,452.69,493.44,453.11,497.97z"/>
	</g>
	<g>
		<circle fill="#FFFFFF" cx="532.52" cy="249.93" r="40.28"/>
		<path fill="#11603A" d="M532.52,292.14c-23.27,0-42.21-18.93-42.21-42.21c0-23.27,18.93-42.21,42.21-42.21
			s42.21,18.93,42.21,42.21C574.73,273.2,555.79,292.14,532.52,292.14z M532.52,211.57c-21.15,0-38.35,17.21-38.35,38.35
			s17.21,38.35,38.35,38.35c21.15,0,38.35-17.21,38.35-38.35S553.67,211.57,532.52,211.57z"/>
	</g>
	<g>
		<circle fill="#11603A" cx="533.65" cy="246.39" r="10.16"/>
		<path fill="#11603A" d="M533.65,258.47c-6.67,0-12.09-5.42-12.09-12.09s5.42-12.09,12.09-12.09s12.09,5.42,12.09,12.09
			S540.31,258.47,533.65,258.47z M533.65,238.15c-4.54,0-8.24,3.69-8.24,8.24s3.69,8.24,8.24,8.24s8.24-3.69,8.24-8.24
			S538.19,238.15,533.65,238.15z"/>
	</g>
	<g>
		<circle fill="#FFFFFF" cx="665.75" cy="249.93" r="40.28"/>
		<path fill="#11603A" d="M665.75,292.14c-23.27,0-42.21-18.93-42.21-42.21c0-23.27,18.93-42.21,42.21-42.21
			s42.21,18.93,42.21,42.21C707.96,273.2,689.03,292.14,665.75,292.14z M665.75,211.57c-21.15,0-38.36,17.21-38.36,38.35
			s17.21,38.35,38.36,38.35s38.36-17.21,38.36-38.35S686.9,211.57,665.75,211.57z"/>
	</g>
	<g>
		<circle fill="#11603A" cx="666.88" cy="246.39" r="10.16"/>
		<path fill="#11603A" d="M666.88,258.47c-6.67,0-12.09-5.42-12.09-12.09s5.42-12.09,12.09-12.09s12.09,5.42,12.09,12.09
			S673.54,258.47,666.88,258.47z M666.88,238.15c-4.54,0-8.24,3.69-8.24,8.24s3.69,8.24,8.24,8.24s8.24-3.69,8.24-8.24
			S671.42,238.15,666.88,238.15z"/>
	</g>
	<g>
		<path fill="#FFFFFF" d="M619.71,311.52c0,0-2.47,27.43-20.58,27.43c-18.1,0-20.58-27.43-20.58-27.43H619.71z"/>
		<path fill="#11603A" d="M599.14,340.88c-8.24,0-14.76-5.15-18.85-14.89c-2.96-7.05-3.62-13.99-3.64-14.29
			c-0.05-0.54,0.13-1.07,0.5-1.47s0.88-0.63,1.42-0.63h41.15c0.54,0,1.06,0.23,1.42,0.63s0.54,0.93,0.5,1.47
			c-0.03,0.29-0.68,7.24-3.64,14.29C613.9,335.73,607.38,340.88,599.14,340.88z M580.77,313.45c1,6.13,5.01,23.57,18.37,23.57
			c13.36,0,17.37-17.44,18.37-23.57H580.77z M619.71,313.45L619.71,313.45L619.71,313.45z"/>
	</g>
	<g>
		<line fill="#FFFFFF" x1="599.14" y1="311.52" x2="599.14" y2="338.95"/>
		<path fill="#11603A" d="M599.14,340.88c-1.06,0-1.93-0.86-1.93-1.93v-27.43c0-1.06,0.86-1.93,1.93-1.93s1.93,0.86,1.93,1.93v27.43
			C601.06,340.01,600.2,340.88,599.14,340.88z"/>
	</g>
	<g>
		<path fill="#FFF5CA" d="M599.14,313.81c8.55,0,15.26,6.68,24.81,6.68c9.01,0,16.75-5.49,16.75-14.42
			c0-15.82-21.4-29.18-41.56-29.18c-20.16,0-41.56,13.36-41.56,29.18c0,8.92,7.74,14.42,16.75,14.42
			C583.88,320.49,590.59,313.81,599.14,313.81z"/>
		<path fill="#11603A" d="M623.95,322.42c-5.3,0-9.65-1.85-13.86-3.63c-3.7-1.57-7.18-3.05-10.95-3.05c-3.76,0-7.25,1.48-10.95,3.05
			c-4.21,1.79-8.56,3.63-13.86,3.63c-10.82,0-18.67-6.87-18.67-16.34c0-17.52,23.37-31.11,43.48-31.11
			c20.11,0,43.48,13.59,43.48,31.11C642.62,315.54,634.77,322.42,623.95,322.42z M599.14,311.88c4.55,0,8.57,1.71,12.46,3.35
			c3.85,1.64,7.84,3.33,12.36,3.33c7.36,0,14.82-4.29,14.82-12.49c0-14.01-19.26-27.26-39.63-27.26
			c-20.37,0-39.63,13.25-39.63,27.26c0,8.2,7.46,12.49,14.82,12.49c4.52,0,8.5-1.69,12.36-3.33
			C590.57,313.59,594.59,311.88,599.14,311.88z"/>
	</g>
	<g>
		<path fill="#11603A" d="M599.14,295.23c28.42-6.33,26.44-21.1,0-21.1S570.72,288.9,599.14,295.23z"/>
		<path fill="#11603A" d="M599.14,297.16c-0.14,0-0.28-0.02-0.42-0.05c-21.49-4.79-22.31-12.88-22.05-15.25
			c0.66-5.95,9.26-9.65,22.46-9.65c13.2,0,21.81,3.7,22.47,9.65c0.26,2.37-0.56,10.46-22.05,15.25
			C599.42,297.14,599.28,297.16,599.14,297.16z M599.14,276.06c-11.79,0-18.29,3.13-18.64,6.22c-0.35,3.18,5.34,7.94,18.64,10.97
			c13.3-3.03,18.99-7.8,18.64-10.97C617.43,279.19,610.92,276.06,599.14,276.06z"/>
	</g>
	<g>
		<polygon fill="#F9E2B9" points="598.01,649.47 284.25,518.1 284.25,347.18 598.01,478.55 		"/>
		<path fill="#11603A" d="M598.01,653.33c-0.5,0-1.01-0.1-1.49-0.3L282.76,521.65c-1.43-0.6-2.36-2-2.36-3.55V347.18
			c0-1.29,0.65-2.49,1.72-3.21c1.07-0.71,2.43-0.84,3.62-0.35L599.5,475c1.43,0.6,2.36,2,2.36,3.55v170.92
			c0,1.29-0.65,2.49-1.72,3.21C599.5,653.11,598.76,653.33,598.01,653.33z M288.1,515.53l306.06,128.15V481.12L288.1,352.97V515.53z
			"/>
	</g>
	<g>
		<polygon fill="#FFF9F0" points="523.15,580.61 209.39,449.24 284.25,347.18 598.01,478.55 		"/>
		<path fill="#11603A" d="M523.15,584.47c-0.5,0-1-0.1-1.49-0.3L207.9,452.79c-1.09-0.46-1.91-1.39-2.22-2.52
			c-0.32-1.14-0.09-2.36,0.61-3.31l74.86-102.06c1.05-1.44,2.95-1.96,4.59-1.28L599.5,475c1.09,0.46,1.91,1.39,2.22,2.52
			s0.09,2.36-0.61,3.31l-74.86,102.06C525.52,583.91,524.35,584.47,523.15,584.47z M215.39,447.57l306.45,128.31l70.17-95.67
			L285.56,351.9L215.39,447.57z"/>
	</g>
	<g>
		<polygon fill="#E2C79C" points="911.77,518.1 598.01,649.47 598.01,478.55 911.77,347.18 		"/>
		<path fill="#11603A" d="M598.01,653.33c-0.75,0-1.49-0.22-2.13-0.65c-1.07-0.71-1.72-1.92-1.72-3.21V478.55
			c0-1.55,0.93-2.95,2.36-3.55l313.76-131.38c1.19-0.5,2.55-0.37,3.62,0.35c1.07,0.71,1.72,1.92,1.72,3.21V518.1
			c0,1.55-0.93,2.95-2.36,3.55L599.5,653.03C599.02,653.23,598.51,653.33,598.01,653.33z M601.86,481.12v162.57l306.06-128.15
			V352.97L601.86,481.12z M911.78,518.1L911.78,518.1L911.78,518.1z"/>
	</g>
	<g>
		<polygon fill="#FFF9F0" points="672.87,580.61 986.63,449.24 911.77,347.18 598.01,478.55 		"/>
		<path fill="#11603A" d="M672.87,584.47c-1.2,0-2.36-0.56-3.11-1.57L594.9,480.83c-0.7-0.95-0.92-2.17-0.61-3.31
			s1.13-2.07,2.22-2.52l313.76-131.38c1.64-0.69,3.54-0.16,4.59,1.28l74.86,102.06c0.7,0.95,0.92,2.17,0.61,3.31
			s-1.14,2.07-2.22,2.52L674.36,584.17C673.87,584.37,673.37,584.47,672.87,584.47z M604.01,480.22l70.17,95.67l306.45-128.31
			l-70.17-95.67L604.01,480.22z"/>
	</g>
	<g>
		<path fill="#9EEBFF" d="M460.61,337.82c0,0-56.52,39.32-78.64,46.69s-21.3,23.76,0,27.85c21.3,4.1,90.43-10.65,90.43-10.65"/>
		<path fill="#11603A" d="M391.62,416.92c-4.05,0-7.59-0.23-10.38-0.77c-11.63-2.24-18.87-8.15-19.38-15.83
			c-0.53-8.07,6.53-15.34,18.89-19.46c21.34-7.12,77.1-45.81,77.66-46.2c1.75-1.22,4.15-0.78,5.36,0.96
			c1.21,1.75,0.78,4.15-0.96,5.36c-2.33,1.62-57.23,39.72-79.62,47.18c-10.4,3.47-13.85,8.44-13.64,11.64
			c0.25,3.84,5.41,7.28,13.15,8.77c20.29,3.9,88.22-10.49,88.9-10.63c2.08-0.44,4.13,0.88,4.57,2.96c0.44,2.08-0.88,4.13-2.96,4.57
			C470.71,406.02,419.22,416.92,391.62,416.92z"/>
	</g>
	<g>
		<path fill="#9EEBFF" d="M739.92,337.82c0,0,56.52,39.32,78.64,46.69s21.3,23.76,0,27.85c-21.3,4.1-90.43-10.65-90.43-10.65"/>
		<path fill="#11603A" d="M808.91,416.92c-27.6,0-79.09-10.9-81.58-11.44c-2.08-0.44-3.41-2.49-2.96-4.57s2.49-3.41,4.57-2.96
			c0.68,0.15,68.6,14.53,88.9,10.63c7.73-1.49,12.89-4.93,13.15-8.77c0.21-3.2-3.23-8.18-13.64-11.64
			c-22.39-7.46-77.29-45.57-79.62-47.18c-1.75-1.21-2.18-3.62-0.96-5.36c1.21-1.75,3.62-2.18,5.36-0.96
			c0.56,0.39,56.32,39.09,77.66,46.2c12.36,4.12,19.42,11.39,18.89,19.46c-0.51,7.67-7.75,13.59-19.38,15.83
			C816.5,416.69,812.96,416.92,808.91,416.92z"/>
	</g>
	<g>
		<polygon fill="#FFF9F0" points="728.13,108.43 885.54,42.52 1042.95,108.43 885.54,174.34 		"/>
		<path fill="#11603A" d="M885.54,178.19c-0.51,0-1.01-0.1-1.49-0.3l-157.41-65.91c-1.43-0.6-2.36-2-2.36-3.55s0.93-2.95,2.36-3.55
			l157.41-65.91c0.95-0.4,2.02-0.4,2.98,0l157.41,65.91c1.43,0.6,2.36,2,2.36,3.55s-0.93,2.95-2.36,3.55l-157.41,65.91
			C886.55,178.09,886.05,178.19,885.54,178.19z M738.1,108.43l147.44,61.73l147.44-61.73L885.54,46.69L738.1,108.43z"/>
	</g>
	<g>
		<line fill="#FFF9F0" x1="973.1" y1="137.91" x2="815.69" y2="72"/>
		<path fill="#11603A" d="M973.1,139.83c-0.25,0-0.5-0.05-0.74-0.15L814.94,73.77c-0.98-0.41-1.44-1.54-1.03-2.52
			c0.41-0.98,1.54-1.44,2.52-1.03l157.41,65.91c0.98,0.41,1.44,1.54,1.03,2.52C974.56,139.39,973.85,139.83,973.1,139.83z"/>
	</g>
</g>
</svg>
